<?xml version="1.0" encoding="utf-8"?>
<!-- Generator: Adobe Illustrator 27.5.0, SVG Export Plug-In . SVG Version: 6.00 Build 0)  -->
<svg version="1.1" id="Layer_1" xmlns="http://www.w3.org/2000/svg" xmlns:xlink="http://www.w3.org/1999/xlink" x="0px" y="0px"
	 viewBox="0 0 3724 2100" style="enable-background:new 0 0 3724 2100;" xml:space="preserve">
<g>
	<rect y="0" style="fill-rule:evenodd;clip-rule:evenodd;" width="3724" height="2099.999"/>
	<g>
		<defs>
			<path id="SVGID_1_" d="M1897.369,0c-13.812,46.04-39.923,73.633-85.881,70.083C1733.887,64.093,1664.76,38.717,1601.462,0h4.62
				c62.1,37.392,129.802,61.88,205.594,67.731c44.274,3.42,69.638-23.2,83.211-67.731H1897.369z M3213.922,0
				c-34.169,49.84-67.485,106.949-101.04,164.475c-111.396,190.981-225.429,386.481-382.955,337.229
				C2525.422,437.767,2435.74,225.657,2354.206,0h2.509c81.259,224.805,170.727,435.931,373.918,499.461
				c155.732,48.69,269.284-145.989,380.213-336.166C3144.122,106.244,3177.164,49.602,3211.06,0H3213.922z M3724,266.58
				c-90.968,245.651-197.381,482.096-390.635,534.323c-45.833,12.386-68.775,3.449-75.462-21.291
				c-14.186-52.487,47.068-177.132,116.935-319.299C3451.919,303.466,3539.514,125.217,3547.611,0h2.309
				c-8.107,125.872-95.785,304.293-172.965,461.345c-69.658,141.741-130.729,266.009-116.773,317.651
				c6.289,23.288,28.338,31.577,72.566,19.625C3526.481,746.268,3632.749,507.005,3724,259.79V266.58z"/>
		</defs>
		<clipPath id="SVGID_00000059296167121139093430000002489900471815051404_">
			<use xlink:href="#SVGID_1_"  style="overflow:visible;"/>
		</clipPath>
		
			<linearGradient id="SVGID_00000176015819397142491460000010924739223515561910_" gradientUnits="userSpaceOnUse" x1="3541.2813" y1="-708.7643" x2="1610.493" y2="1742.5668">
			<stop  offset="0" style="stop-color:#FF0000"/>
			<stop  offset="1" style="stop-color:#FFFF00"/>
		</linearGradient>
		
			<rect x="1601.462" y="0" style="clip-path:url(#SVGID_00000059296167121139093430000002489900471815051404_);fill:url(#SVGID_00000176015819397142491460000010924739223515561910_);" width="2122.538" height="813.288"/>
	</g>
	<g>
		<defs>
			<path id="SVGID_00000096770204140542028750000000579388908191307137_" d="M1874.474,0c-13.07,51.335-39.496,82.733-88.336,78.962
				C1702.764,72.526,1629.176,43.695,1562.086,0h4.339c65.98,42.398,138.251,70.305,219.899,76.609
				c47.144,3.64,72.848-26.775,85.706-76.609H1874.474z M3194.728,0c-36.331,51.877-71.628,112.377-107.195,173.352
				c-111.396,190.981-225.43,386.48-382.956,337.23C2497.393,445.806,2408.06,228.95,2325.656,0h2.508
				c82.127,228.102,171.256,443.973,377.118,508.337c155.733,48.691,269.287-145.988,380.214-336.165
				C3120.773,111.69,3155.788,51.662,3191.835,0H3194.728z M3724,205.958c-97.046,268.987-204.531,546.678-415.986,603.821
				c-45.833,12.388-68.774,3.45-75.46-21.29c-14.188-52.487,47.067-177.132,116.934-319.299
				C3428.409,308.599,3518.354,125.57,3522.704,0h2.308c-4.38,126.262-94.394,309.44-173.407,470.222
				c-69.657,141.74-130.727,266.009-116.773,317.651c6.291,23.289,28.338,31.578,72.566,19.626
				c211.91-57.266,319.178-338.155,416.603-608.475V205.958z"/>
		</defs>
		<clipPath id="SVGID_00000068639564809058797310000006201305501549962660_">
			<use xlink:href="#SVGID_00000096770204140542028750000000579388908191307137_"  style="overflow:visible;"/>
		</clipPath>
		
			<linearGradient id="SVGID_00000141429515873567509290000007755832778530787245_" gradientUnits="userSpaceOnUse" x1="3531.2888" y1="-716.6346" x2="1600.498" y2="1734.6996">
			<stop  offset="0" style="stop-color:#FF0000"/>
			<stop  offset="1" style="stop-color:#FFFF00"/>
		</linearGradient>
		
			<rect x="1562.086" y="0" style="clip-path:url(#SVGID_00000068639564809058797310000006201305501549962660_);fill:url(#SVGID_00000141429515873567509290000007755832778530787245_);" width="2161.914" height="822.166"/>
	</g>
	<g>
		<defs>
			<path id="SVGID_00000176766089567144644610000000176389241115029434_" d="M1851.213,0c-12.245,56.56-38.829,91.824-90.425,87.841
				C1671.885,80.978,1594.104,48.665,1523.469,0h4.225c69.573,47.357,146.073,78.753,233.281,85.487
				c49.883,3.851,75.763-30.421,87.818-85.487H1851.213z M3175.671,0c-38.554,53.786-75.872,117.742-113.488,182.231
				c-111.394,190.981-225.427,386.481-382.956,337.23C2469.368,453.847,2380.424,232.199,2297.115,0h2.508
				c83.027,231.357,171.778,452.016,380.311,517.215c155.732,48.69,269.286-145.988,380.213-336.165
				c37.32-63.984,74.347-127.45,112.612-181.05H3175.671z M3724,144.445c-4.428,12.265-8.861,24.582-13.308,36.946
				c-100.339,278.99-207.792,577.75-428.028,637.268c-45.832,12.386-68.775,3.448-75.46-21.291
				c-14.187-52.487,47.069-177.132,116.935-319.298C3404.939,313.651,3497.294,125.712,3497.514,0h2.315
				c-0.273,126.447-92.689,314.51-173.575,479.1c-69.658,141.739-130.729,266.009-116.771,317.65
				c6.288,23.289,28.336,31.578,72.564,19.626c219.056-59.197,326.294-357.355,426.429-635.78
				c5.189-14.426,10.358-28.8,15.523-43.084V144.445z"/>
		</defs>
		<clipPath id="SVGID_00000054245263731235141100000009574206695976051611_">
			<use xlink:href="#SVGID_00000176766089567144644610000000176389241115029434_"  style="overflow:visible;"/>
		</clipPath>
		
			<linearGradient id="SVGID_00000105391384432150855300000003610810086441557389_" gradientUnits="userSpaceOnUse" x1="3521.5305" y1="-724.3208" x2="1590.7439" y2="1727.0081">
			<stop  offset="0" style="stop-color:#FF0000"/>
			<stop  offset="1" style="stop-color:#FFFF00"/>
		</linearGradient>
		
			<rect x="1523.469" y="0" style="clip-path:url(#SVGID_00000054245263731235141100000009574206695976051611_);fill:url(#SVGID_00000105391384432150855300000003610810086441557389_);" width="2200.531" height="831.044"/>
	</g>
	<g>
		<defs>
			<path id="SVGID_00000098183792687544494890000001384258941213203851_" d="M1827.636,0
				c-11.355,61.713-37.955,100.905-92.198,96.716C1641.234,89.444,1559.518,53.599,1485.56,0h4.057
				c72.951,52.308,153.452,87.218,246.008,94.364c52.51,4.054,78.42-34.141,89.607-94.364H1827.636z M3156.762,0
				c-40.85,55.55-80.222,123.033-119.93,191.108c-111.395,190.979-225.429,386.481-382.954,337.23
				C2441.344,461.889,2352.827,235.405,2268.585,0h2.505c83.959,234.567,172.294,460.06,383.492,526.091
				c155.732,48.691,269.284-145.988,380.212-336.164c39.404-67.555,78.48-134.53,119.034-189.927H3156.762z M3724,83.982
				c-12.917,34.733-25.729,70.338-38.658,106.285c-100.338,278.99-207.794,577.75-428.029,637.266
				c-45.831,12.386-68.773,3.449-75.461-21.288c-14.186-52.488,47.069-177.132,116.935-319.3
				C3381.516,318.608,3476.346,125.621,3472.014,0h2.333c4.244,126.405-90.643,319.49-173.443,487.977
				c-69.656,141.74-130.728,266.01-116.771,317.65c6.289,23.289,28.337,31.577,72.565,19.626
				c219.057-59.197,326.294-357.355,426.429-635.78c13.667-38.001,27.202-75.63,40.874-112.243V83.982z"/>
		</defs>
		<clipPath id="SVGID_00000172421985112578871010000009234090428356002733_">
			<use xlink:href="#SVGID_00000098183792687544494890000001384258941213203851_"  style="overflow:visible;"/>
		</clipPath>
		
			<linearGradient id="SVGID_00000039101392007717001660000002027202590916746642_" gradientUnits="userSpaceOnUse" x1="3511.9915" y1="-731.8363" x2="1581.2048" y2="1719.4927">
			<stop  offset="0" style="stop-color:#FF0000"/>
			<stop  offset="1" style="stop-color:#FFFF00"/>
		</linearGradient>
		
			<rect x="1485.56" y="0" style="clip-path:url(#SVGID_00000172421985112578871010000009234090428356002733_);fill:url(#SVGID_00000039101392007717001660000002027202590916746642_);" width="2238.44" height="839.92"/>
	</g>
	<g>
		<defs>
			<path id="SVGID_00000048471857755666700070000012561413160460607163_" d="M1803.793,0
				c-10.413,66.797-36.903,109.98-93.705,105.593C1610.78,97.927,1525.351,58.5,1448.259,0h3.924
				c76.13,57.22,160.397,95.699,258.093,103.241c55.048,4.251,80.865-37.926,91.13-103.241H1803.793z M3138.025,0
				c-43.222,57.151-84.696,128.244-126.542,199.985c-111.393,190.98-225.43,386.481-382.955,337.23
				C2413.323,469.931,2325.27,238.565,2240.06,0h2.504c84.925,237.731,172.808,468.105,386.669,534.968
				c155.732,48.691,269.285-145.987,380.212-336.164C3050.979,127.597,3092.15,57.036,3135.069,0H3138.025z M3724,26.511
				c-21.686,54.989-42.688,113.356-64.008,172.634c-100.338,278.989-207.793,577.751-428.027,637.266
				c-45.833,12.386-68.774,3.449-75.462-21.288c-14.188-52.488,47.068-177.133,116.935-319.301
				C3358.143,323.464,3455.527,125.272,3446.175,0h2.349c9.223,126.112-88.206,324.372-172.969,496.854
				c-69.658,141.739-130.729,266.01-116.774,317.65c6.292,23.289,28.338,31.577,72.566,19.626
				c219.057-59.198,326.295-357.356,426.431-635.779c22.043-61.289,43.746-121.61,66.222-178.247V26.511z"/>
		</defs>
		<clipPath id="SVGID_00000158730558096221217590000014098435253427940511_">
			<use xlink:href="#SVGID_00000048471857755666700070000012561413160460607163_"  style="overflow:visible;"/>
		</clipPath>
		
			<linearGradient id="SVGID_00000026148181372551813040000009069580657862035110_" gradientUnits="userSpaceOnUse" x1="3502.6377" y1="-739.2014" x2="1571.8474" y2="1712.1322">
			<stop  offset="0" style="stop-color:#FF0000"/>
			<stop  offset="1" style="stop-color:#FFFF00"/>
		</linearGradient>
		
			<rect x="1448.259" y="0" style="clip-path:url(#SVGID_00000158730558096221217590000014098435253427940511_);fill:url(#SVGID_00000026148181372551813040000009069580657862035110_);" width="2275.741" height="848.797"/>
	</g>
	<g>
		<defs>
			<path id="SVGID_00000061442718898881607540000001005475037866420102_" d="M1779.715,0
				c-9.431,71.816-35.695,119.048-94.975,114.47C1580.483,106.423,1491.52,63.378,1411.445,0h3.845
				c79.146,62.097,166.974,104.192,269.636,112.118c57.501,4.44,83.107-41.784,92.408-112.118H1779.715z M3119.495,0
				c-45.69,58.571-89.319,133.358-133.361,208.864c-111.396,190.978-225.43,386.479-382.956,337.228
				C2385.305,477.974,2297.758,241.682,2211.541,0h2.506c85.927,240.85,173.314,476.15,389.836,543.847
				c155.732,48.69,269.286-145.989,380.214-336.166C3027.812,132.736,3071.125,58.497,3116.496,0H3119.495z M3712.909,0
				c-26.828,65.009-52.309,135.85-78.265,208.022c-100.34,278.989-207.795,577.751-428.029,637.266
				c-45.833,12.385-68.774,3.449-75.461-21.288c-14.187-52.488,47.068-177.132,116.935-319.3
				C3334.824,328.21,3434.847,124.636,3419.958,0h2.364c14.713,125.542-85.335,329.143-172.116,505.731
				c-69.656,141.74-130.728,266.011-116.773,317.651c6.291,23.289,28.338,31.577,72.565,19.627
				c219.057-59.198,326.294-357.356,426.431-635.781c25.846-71.863,51.222-142.41,77.93-207.228H3712.909z"/>
		</defs>
		<clipPath id="SVGID_00000092428324657385970860000008234253983181419710_">
			<use xlink:href="#SVGID_00000061442718898881607540000001005475037866420102_"  style="overflow:visible;"/>
		</clipPath>
		
			<linearGradient id="SVGID_00000083769278270231744100000013279344656505967794_" gradientUnits="userSpaceOnUse" x1="3490.0137" y1="-749.1452" x2="1559.225" y2="1702.1862">
			<stop  offset="0" style="stop-color:#FF0000"/>
			<stop  offset="1" style="stop-color:#FFFF00"/>
		</linearGradient>
		
			<rect x="1411.445" y="0" style="clip-path:url(#SVGID_00000092428324657385970860000008234253983181419710_);fill:url(#SVGID_00000083769278270231744100000013279344656505967794_);" width="2301.465" height="857.673"/>
	</g>
	<g>
		<defs>
			<path id="SVGID_00000171688822672178080500000015588907204441536922_" d="M1755.437,0
				c-8.419,76.77-34.358,128.113-96.048,123.348C1550.327,114.929,1457.995,68.231,1375.072,0h3.769
				c82.022,66.953,173.251,112.698,280.735,120.997c59.89,4.625,85.182-45.704,93.487-120.997H1755.437z M3101.2,0
				c-48.265,59.783-94.112,138.36-140.414,217.742c-111.396,190.978-225.43,386.479-382.956,337.229
				C2357.29,486.018,2270.283,244.748,2183.027,0h2.504c86.963,243.921,173.819,484.198,393.002,552.725
				c155.732,48.69,269.287-145.989,380.212-336.165c45.957-78.789,91.467-156.804,139.396-216.56H3101.2z M3691.255,0
				c-28.189,67.417-54.816,141.425-81.961,216.9c-100.339,278.989-207.794,577.75-428.028,637.266
				c-45.832,12.385-68.775,3.449-75.462-21.29c-14.186-52.487,47.069-177.131,116.935-319.3
				C3311.566,332.828,3414.326,123.68,3393.321,0h2.381c20.771,124.657-81.986,333.79-170.847,514.609
				c-69.655,141.74-130.727,266.01-116.771,317.651c6.289,23.289,28.338,31.577,72.566,19.627
				c219.055-59.198,326.295-357.356,426.429-635.78c27.033-75.163,53.554-148.874,81.621-216.106H3691.255z"/>
		</defs>
		<clipPath id="SVGID_00000084503654482154088410000010151591835831653305_">
			<use xlink:href="#SVGID_00000171688822672178080500000015588907204441536922_"  style="overflow:visible;"/>
		</clipPath>
		
			<linearGradient id="SVGID_00000159431773226032753550000010590935251338328467_" gradientUnits="userSpaceOnUse" x1="3474.2666" y1="-761.5499" x2="1543.47" y2="1689.7917">
			<stop  offset="0" style="stop-color:#FF0000"/>
			<stop  offset="1" style="stop-color:#FFFF00"/>
		</linearGradient>
		
			<rect x="1375.072" y="0" style="clip-path:url(#SVGID_00000084503654482154088410000010151591835831653305_);fill:url(#SVGID_00000159431773226032753550000010590935251338328467_);" width="2316.183" height="866.551"/>
	</g>
	<g>
		<defs>
			<path id="SVGID_00000079474569316666221440000006770855065380225177_" d="M1730.969,0
				c-7.381,81.655-32.891,137.171-96.93,132.225C1520.315,123.447,1424.786,73.035,1339.145,0h3.651
				c84.777,71.777,179.253,121.214,291.43,129.874c62.212,4.802,87.095-49.693,94.377-129.874H1730.969z M3083.147,0
				c-50.955,60.752-99.083,143.245-147.714,226.617c-111.394,190.98-225.427,386.482-382.955,337.23
				c-221.662-69.302-308.428-312.684-396.135-558.708L2154.512,0h2.503l1.55,4.346c87.51,245.472,174.08,488.303,394.619,557.254
				c155.732,48.692,269.285-145.987,380.212-336.164C2981.668,142.678,3029.448,60.787,3080.054,0H3083.147z M3669.644,0
				c-29.581,69.77-57.359,146.973-85.702,225.777c-100.338,278.99-207.791,577.75-428.028,637.265
				c-45.83,12.386-68.773,3.449-75.46-21.29c-14.186-52.487,47.069-177.131,116.935-319.299
				C3288.377,337.307,3393.987,122.357,3366.216,0h2.402c27.468,123.419-78.107,338.301-169.113,523.486
				c-69.658,141.739-130.729,266.01-116.772,317.652c6.289,23.288,28.337,31.577,72.565,19.626
				c219.056-59.198,326.294-357.357,426.43-635.781C3609.955,146.5,3637.624,69.595,3667.079,0H3669.644z"/>
		</defs>
		<clipPath id="SVGID_00000179642468790208902240000015011330039835308204_">
			<use xlink:href="#SVGID_00000079474569316666221440000006770855065380225177_"  style="overflow:visible;"/>
		</clipPath>
		
			<linearGradient id="SVGID_00000070805089987205383950000016637681607380212371_" gradientUnits="userSpaceOnUse" x1="3458.6702" y1="-773.8347" x2="1527.8824" y2="1677.4956">
			<stop  offset="0" style="stop-color:#FF0000"/>
			<stop  offset="1" style="stop-color:#FFFF00"/>
		</linearGradient>
		
			<rect x="1339.145" y="0" style="clip-path:url(#SVGID_00000179642468790208902240000015011330039835308204_);fill:url(#SVGID_00000070805089987205383950000016637681607380212371_);" width="2330.5" height="875.428"/>
	</g>
	<g>
		<defs>
			<path id="SVGID_00000060030668167966350490000001759978527012626325_" d="M1706.345,0l-0.161,2.173
				c-6.586,85.304-31.717,144.009-97.494,138.929C1490.417,131.972,1391.825,77.808,1303.567,0h3.573
				c87.42,76.561,184.992,129.738,301.737,138.751c63.979,4.939,88.477-52.835,94.957-136.765L1703.98,0H1706.345z M3065.395,0
				c-53.784,61.445-104.27,147.99-155.311,235.494c-111.395,190.98-225.43,386.481-382.955,337.23
				c-221.663-69.304-308.428-312.684-396.136-558.709L2125.995,0h2.505l4.715,13.224
				c87.509,245.472,174.079,488.303,394.618,557.255c155.732,48.691,269.286-145.988,380.214-336.165
				C2958.709,147.456,3008.829,61.549,3062.246,0H3065.395z M3648.079,0c-31.004,72.067-59.936,152.497-89.484,234.654
				c-100.34,278.99-207.795,577.75-428.03,637.266c-45.832,12.385-68.773,3.449-75.461-21.291
				c-14.186-52.487,47.071-177.13,116.936-319.299C3265.269,341.626,3373.865,120.62,3338.587,0h2.432
				c34.887,121.783-73.633,342.655-166.864,532.363c-69.657,141.74-130.727,266.01-116.772,317.652
				c6.291,23.288,28.337,31.577,72.565,19.626c219.058-59.198,326.295-357.357,426.431-635.781
				C3585.81,152.031,3614.63,71.9,3645.503,0H3648.079z"/>
		</defs>
		<clipPath id="SVGID_00000083048650883203094310000016411715143860101035_">
			<use xlink:href="#SVGID_00000060030668167966350490000001759978527012626325_"  style="overflow:visible;"/>
		</clipPath>
		
			<linearGradient id="SVGID_00000023992170665407068950000001029229145330211494_" gradientUnits="userSpaceOnUse" x1="3443.1943" y1="-786.0231" x2="1512.4014" y2="1665.3138">
			<stop  offset="0" style="stop-color:#FF0000"/>
			<stop  offset="1" style="stop-color:#FFFF00"/>
		</linearGradient>
		
			<rect x="1303.567" y="0" style="clip-path:url(#SVGID_00000083048650883203094310000016411715143860101035_);fill:url(#SVGID_00000023992170665407068950000001029229145330211494_);" width="2344.512" height="884.306"/>
	</g>
	<g>
		<defs>
			<path id="SVGID_00000175311430533030548460000007951429112356455098_" d="M1681.576,0c-0.214,3.729-0.459,7.416-0.74,11.052
				c-6.586,85.305-31.718,144.009-97.496,138.929c-122.72-9.473-224.25-67.433-315.035-149.981h3.52
				c89.967,81.307,190.501,138.272,311.702,147.63c63.979,4.939,88.477-52.835,94.957-136.766c0.277-3.574,0.518-7.198,0.73-10.864
				H1681.576z M3048.017,0c-56.781,61.815-109.728,152.56-163.281,244.372c-111.396,190.98-225.43,386.481-382.957,337.23
				c-221.662-69.302-308.427-312.684-396.135-558.709c-2.72-7.63-5.441-15.263-8.167-22.893h2.506
				c2.632,7.367,5.258,14.735,7.884,22.102c87.508,245.472,174.079,488.303,394.616,557.255
				c155.734,48.69,269.287-145.988,380.213-336.164C2935.843,152.077,2988.391,62,3044.776,0H3048.017z M3626.58,0
				c-32.466,74.311-62.568,157.983-93.337,243.531c-100.338,278.992-207.794,577.752-428.027,637.268
				c-45.833,12.386-68.776,3.449-75.461-21.29c-14.188-52.487,47.067-177.131,116.935-319.299
				C3242.253,345.752,3353.972,118.401,3310.319,0h2.514c43.13,119.686-68.489,346.836-164.027,541.241
				c-69.657,141.74-130.727,266.01-116.773,317.651c6.291,23.29,28.338,31.578,72.567,19.628
				c219.055-59.198,326.295-357.356,426.43-635.781C3561.68,157.518,3591.671,74.158,3624.008,0H3626.58z"/>
		</defs>
		<clipPath id="SVGID_00000021804474685803966470000004698229567820749963_">
			<use xlink:href="#SVGID_00000175311430533030548460000007951429112356455098_"  style="overflow:visible;"/>
		</clipPath>
		
			<linearGradient id="SVGID_00000090276035248425021610000004068523963534950810_" gradientUnits="userSpaceOnUse" x1="3427.8376" y1="-798.1182" x2="1497.048" y2="1653.2147">
			<stop  offset="0" style="stop-color:#FF0000"/>
			<stop  offset="1" style="stop-color:#FFFF00"/>
		</linearGradient>
		
			<rect x="1268.304" y="0" style="clip-path:url(#SVGID_00000021804474685803966470000004698229567820749963_);fill:url(#SVGID_00000090276035248425021610000004068523963534950810_);" width="2358.276" height="893.185"/>
	</g>
	<g>
		<defs>
			<path id="SVGID_00000061469218193431116950000008468062363138209976_" d="M1656.676,0c-0.295,6.787-0.688,13.436-1.189,19.929
				c-6.587,85.304-31.72,144.009-97.497,138.93C1430.915,149.048,1326.559,87.255,1233.331,0h3.47
				c92.431,86.02,195.813,146.812,321.377,156.507c63.978,4.939,88.476-52.834,94.955-136.766c0.497-6.432,0.885-13.02,1.18-19.741
				H1656.676z M3031.025,0c-59.965,61.8-115.466,156.946-171.639,253.25c-111.396,190.982-225.429,386.481-382.956,337.23
				c-221.662-69.302-308.427-312.684-396.135-558.709c-3.775-10.59-7.552-21.185-11.342-31.77h2.505
				c3.695,10.322,7.377,20.653,11.059,30.979c87.51,245.472,174.078,488.303,394.618,557.255
				c155.732,48.691,269.285-145.988,380.212-336.164C2913.091,156.5,2968.181,62.084,3027.725,0H3031.025z M3605.148,0
				c-33.971,76.494-65.252,163.431-97.253,252.409c-100.34,278.991-207.792,577.751-428.029,637.267
				c-45.83,12.386-68.775,3.449-75.459-21.289c-14.188-52.487,47.068-177.133,116.935-319.3
				C3219.356,349.64,3334.34,115.609,3281.271,0h2.621c52.375,117.043-62.477,350.788-160.436,550.12
				c-69.655,141.74-130.728,266.009-116.771,317.649c6.288,23.29,28.338,31.578,72.566,19.626
				c219.055-59.197,326.294-357.354,426.43-635.779c31.88-88.641,63.048-175.266,96.882-251.616H3605.148z"/>
		</defs>
		<clipPath id="SVGID_00000149382014239459647430000012187444676277583783_">
			<use xlink:href="#SVGID_00000061469218193431116950000008468062363138209976_"  style="overflow:visible;"/>
		</clipPath>
		
			<linearGradient id="SVGID_00000088817407751808618320000009110980568650627733_" gradientUnits="userSpaceOnUse" x1="3412.5911" y1="-810.1288" x2="1481.8052" y2="1641.1991">
			<stop  offset="0" style="stop-color:#FF0000"/>
			<stop  offset="1" style="stop-color:#FFFF00"/>
		</linearGradient>
		
			<rect x="1233.331" y="0" style="clip-path:url(#SVGID_00000149382014239459647430000012187444676277583783_);fill:url(#SVGID_00000088817407751808618320000009110980568650627733_);" width="2371.817" height="902.062"/>
	</g>
	<g>
		<defs>
			<path id="SVGID_00000003823692120723407660000015265759827340950187_" d="M1631.655,0c-0.306,9.886-0.802,19.506-1.52,28.806
				c-6.587,85.304-31.718,144.01-97.496,138.928C1401.295,157.596,1294.219,91.924,1198.618,0h3.427
				c94.82,90.697,200.942,155.36,330.782,165.384c63.979,4.94,88.478-52.835,94.957-136.766c0.713-9.24,1.207-18.796,1.512-28.618
				H1631.655z M3014.581,0c-63.397,61.313-121.603,161.072-180.546,262.127c-111.396,190.979-225.43,386.482-382.956,337.23
				c-221.663-69.304-308.428-312.684-396.135-558.71c-4.831-13.551-9.666-27.108-14.526-40.646h2.506
				c4.765,13.275,9.505,26.569,14.241,39.856c87.508,245.471,174.079,488.303,394.617,557.255
				c155.732,48.691,269.287-145.987,380.213-336.164C2890.466,160.705,2948.213,61.721,3011.14,0H3014.581z M3583.77,0
				c-35.513,78.61-67.98,168.85-101.226,261.287c-100.338,278.988-207.792,577.75-428.028,637.266
				c-45.832,12.386-68.773,3.448-75.459-21.29c-14.188-52.486,47.067-177.132,116.934-319.299
				C3196.581,353.276,3315.067,112.151,3251.408,0h2.693c62.784,113.754-55.492,354.484-155.995,558.997
				c-69.656,141.738-130.728,266.009-116.772,317.649c6.291,23.29,28.338,31.578,72.566,19.625
				c219.057-59.196,326.295-357.355,426.43-635.779C3513.449,168.403,3545.8,78.476,3581.17,0H3583.77z"/>
		</defs>
		<clipPath id="SVGID_00000054240979559019830300000005631421861336397967_">
			<use xlink:href="#SVGID_00000003823692120723407660000015265759827340950187_"  style="overflow:visible;"/>
		</clipPath>
		
			<linearGradient id="SVGID_00000119083682938874040260000001027064584412086717_" gradientUnits="userSpaceOnUse" x1="3397.4399" y1="-822.0607" x2="1466.6519" y2="1629.2699">
			<stop  offset="0" style="stop-color:#FF0000"/>
			<stop  offset="1" style="stop-color:#FFFF00"/>
		</linearGradient>
		
			<rect x="1198.618" y="0" style="clip-path:url(#SVGID_00000054240979559019830300000005631421861336397967_);fill:url(#SVGID_00000119083682938874040260000001027064584412086717_);" width="2385.152" height="910.939"/>
	</g>
	<g>
		<defs>
			<path id="SVGID_00000134213981313167444420000000573919586033537214_" d="M1606.527,0c-0.252,13.023-0.81,25.622-1.742,37.683
				c-6.587,85.305-31.717,144.01-97.494,138.928C1371.755,166.15,1262.06,96.557,1164.151,0h3.381
				c97.145,95.337,205.907,163.912,339.945,174.261c63.978,4.939,88.478-52.836,94.956-136.766c0.927-12,1.482-24.535,1.735-37.495
				H1606.527z M2998.75,0c-67.117,60.247-128.184,164.913-190.066,271.002c-111.394,190.981-225.427,386.483-382.955,337.231
				c-221.662-69.303-308.427-312.685-396.135-558.709c-5.888-16.514-11.782-33.039-17.718-49.525h2.505
				c5.84,16.224,11.64,32.484,17.433,48.733c87.51,245.471,174.081,488.303,394.619,557.255
				c155.732,48.691,269.286-145.988,380.213-336.164C2868.009,164.625,2928.571,60.812,2995.162,0H2998.75z M3562.454,0
				c-37.1,80.652-70.758,174.235-105.26,270.164c-100.34,278.989-207.793,577.75-428.028,637.266
				c-45.832,12.385-68.774,3.447-75.461-21.291c-14.187-52.486,47.07-177.132,116.935-319.299
				C3173.978,356.567,3296.179,107.851,3220.416,0h2.94c74.558,109.702-47.406,357.89-150.599,567.873
				c-69.658,141.739-130.728,266.01-116.772,317.651c6.29,23.29,28.337,31.578,72.566,19.625
				c219.055-59.196,326.292-357.354,426.429-635.779C3489.356,173.788,3522.903,80.536,3559.86,0H3562.454z"/>
		</defs>
		<clipPath id="SVGID_00000009588769063773096450000000624883037382979501_">
			<use xlink:href="#SVGID_00000134213981313167444420000000573919586033537214_"  style="overflow:visible;"/>
		</clipPath>
		
			<linearGradient id="SVGID_00000053544428715394165100000002821966900138302860_" gradientUnits="userSpaceOnUse" x1="3382.3853" y1="-833.9197" x2="1451.5961" y2="1617.4122">
			<stop  offset="0" style="stop-color:#FF0000"/>
			<stop  offset="1" style="stop-color:#FFFF00"/>
		</linearGradient>
		
			<rect x="1164.151" y="0" style="clip-path:url(#SVGID_00000009588769063773096450000000624883037382979501_);fill:url(#SVGID_00000053544428715394165100000002821966900138302860_);" width="2398.303" height="919.816"/>
	</g>
	<g>
		<defs>
			<path id="SVGID_00000059308557076800960720000017359342788068014473_" d="M1581.305,0c-0.143,16.193-0.728,31.779-1.868,46.561
				c-6.586,85.305-31.718,144.01-97.495,138.93C1342.284,174.71,1230.062,101.153,1129.902,0h3.343
				c99.41,99.941,210.718,172.472,348.883,183.139c63.978,4.94,88.476-52.835,94.957-136.765
				c1.136-14.721,1.719-30.245,1.862-46.374H1581.305z M2983.718,0c-71.207,58.436-135.344,168.38-200.382,279.882
				c-111.397,190.98-225.43,386.481-382.956,337.231c-221.663-69.305-308.428-312.686-396.136-558.71
				c-6.945-19.48-13.897-38.975-20.921-58.403h2.508c6.926,19.166,13.785,38.396,20.635,57.612
				c87.509,245.471,174.078,488.304,394.617,557.255c155.732,48.691,269.285-145.988,380.213-336.164
				C2845.761,168.183,2909.346,59.204,2979.963,0H2983.718z M3541.242,0c-38.744,82.629-73.619,179.565-109.396,279.042
				c-100.341,278.989-207.795,577.751-428.029,637.266c-45.832,12.385-68.773,3.447-75.461-21.291
				c-14.186-52.486,47.068-177.132,116.935-319.299C3151.566,359.467,3277.83,102.53,3188.151,0h3.072
				c88.165,104.645-37.729,360.876-143.817,576.751c-69.656,141.739-130.728,266.01-116.773,317.651
				c6.292,23.29,28.34,31.578,72.567,19.625c219.055-59.196,326.295-357.354,426.43-635.779
				c35.649-99.12,70.408-195.722,109-278.247H3541.242z"/>
		</defs>
		<clipPath id="SVGID_00000005267419970372943390000010093754253445760931_">
			<use xlink:href="#SVGID_00000059308557076800960720000017359342788068014473_"  style="overflow:visible;"/>
		</clipPath>
		
			<linearGradient id="SVGID_00000180352067902241214360000008320175422539015559_" gradientUnits="userSpaceOnUse" x1="3367.4294" y1="-845.7001" x2="1436.634" y2="1605.6399">
			<stop  offset="0" style="stop-color:#FF0000"/>
			<stop  offset="1" style="stop-color:#FFFF00"/>
		</linearGradient>
		
			<rect x="1129.902" y="0" style="clip-path:url(#SVGID_00000005267419970372943390000010093754253445760931_);fill:url(#SVGID_00000180352067902241214360000008320175422539015559_);" width="2411.34" height="928.694"/>
	</g>
	<g>
		<defs>
			<path id="SVGID_00000012444106856283976090000006932594402914038931_" d="M1555.988,0c0.015,19.384-0.553,37.973-1.901,55.438
				c-6.587,85.305-31.719,144.01-97.498,138.93C1312.879,183.274,1198.219,105.709,1095.858,0h3.303
				c101.623,104.505,215.393,181.036,357.618,192.017c63.979,4.939,88.475-52.835,94.956-136.766
				c1.344-17.404,1.912-35.929,1.897-55.251H1555.988z M2969.783,0c-75.807,55.626-143.302,171.331-211.796,288.758
				c-111.396,190.98-225.43,386.481-382.956,337.232c-221.663-69.305-308.428-312.685-396.135-558.71
				c-8.003-22.45-16.015-44.919-24.137-67.28h2.511c8.023,22.101,15.939,44.305,23.848,66.489
				c87.51,245.471,174.08,488.303,394.618,557.255c155.733,48.691,269.285-145.988,380.211-336.165
				C2823.785,171.277,2890.65,56.678,2965.76,0H2969.783z M3520.102,0c-40.438,84.522-76.539,184.854-113.607,287.92
				c-100.337,278.99-207.791,577.75-428.027,637.266c-45.833,12.385-68.776,3.448-75.461-21.291
				c-14.188-52.487,47.067-177.131,116.935-319.299C3129.439,361.783,3260.129,95.801,3154.004,0h3.487
				c104.011,98.338-26.211,363.373-135.434,585.628c-69.657,141.739-130.728,266.009-116.772,317.651
				c6.288,23.29,28.337,31.578,72.565,19.628c219.055-59.198,326.295-357.356,426.43-635.782
				C3441.216,184.43,3477.194,84.433,3517.472,0H3520.102z"/>
		</defs>
		<clipPath id="SVGID_00000116953441840840709730000014841270841066583168_">
			<use xlink:href="#SVGID_00000012444106856283976090000006932594402914038931_"  style="overflow:visible;"/>
		</clipPath>
		
			<linearGradient id="SVGID_00000044180235874089712980000001495334165476038575_" gradientUnits="userSpaceOnUse" x1="3352.5583" y1="-857.4123" x2="1421.7715" y2="1593.9167">
			<stop  offset="0" style="stop-color:#FF0000"/>
			<stop  offset="1" style="stop-color:#FFFF00"/>
		</linearGradient>
		
			<rect x="1095.858" y="0" style="clip-path:url(#SVGID_00000116953441840840709730000014841270841066583168_);fill:url(#SVGID_00000044180235874089712980000001495334165476038575_);" width="2424.244" height="937.571"/>
	</g>
	<g>
		<defs>
			<path id="SVGID_00000161593024756215065390000001162964919304000907_" d="M1530.591,0c0.219,22.595-0.301,44.199-1.854,64.315
				c-6.587,85.305-31.718,144.008-97.495,138.93C1283.536,191.842,1166.517,110.224,1062.001,0h3.268
				c103.791,109.03,219.937,189.603,366.158,200.893c63.978,4.939,88.477-52.833,94.956-136.763
				c1.549-20.053,2.067-41.596,1.85-64.129H1530.591z M2957.448,0c-81.149,51.368-152.422,173.532-224.812,297.637
				c-111.396,190.979-225.429,386.48-382.955,337.228c-221.663-69.304-308.428-312.683-396.135-558.709
				c-9.063-25.421-18.136-50.87-27.368-76.156h2.51c9.132,25.027,18.111,50.21,27.079,75.365
				c87.509,245.472,174.078,488.303,394.617,557.255c155.732,48.691,269.285-145.988,380.213-336.164
				C2802.193,173.711,2872.704,52.86,2952.969,0H2957.448z M3499.038,0c-42.184,86.327-79.52,190.102-117.893,296.797
				c-100.339,278.988-207.793,577.749-428.028,637.265c-45.832,12.386-68.773,3.449-75.461-21.289
				c-14.186-52.487,47.07-177.131,116.935-319.299C3107.687,363.342,3243.383,87.16,3117.417,0h4.091
				c122.96,90.306-12.103,365.183-124.801,594.506c-69.656,141.74-130.729,266.01-116.772,317.65
				c6.29,23.289,28.339,31.578,72.566,19.626c219.057-59.197,326.294-357.357,426.43-635.779
				C3417.166,189.69,3454.373,86.254,3496.39,0H3499.038z"/>
		</defs>
		<clipPath id="SVGID_00000136371291219216522640000003574601719706244287_">
			<use xlink:href="#SVGID_00000161593024756215065390000001162964919304000907_"  style="overflow:visible;"/>
		</clipPath>
		
			<linearGradient id="SVGID_00000029767827929723685310000013714006864936813193_" gradientUnits="userSpaceOnUse" x1="3337.7695" y1="-869.0612" x2="1406.9736" y2="1582.2793">
			<stop  offset="0" style="stop-color:#FF0000"/>
			<stop  offset="1" style="stop-color:#FFFF00"/>
		</linearGradient>
		
			<rect x="1062.001" y="0" style="clip-path:url(#SVGID_00000136371291219216522640000003574601719706244287_);fill:url(#SVGID_00000029767827929723685310000013714006864936813193_);" width="2437.036" height="946.448"/>
	</g>
	<g>
		<defs>
			<path id="SVGID_00000013153030737672528740000013818142179956697252_" d="M1505.119,0c0.46,25.822,0.022,50.458-1.734,73.193
				c-6.585,85.305-31.717,144.008-97.494,138.931C1254.247,200.417,1134.946,114.701,1028.314,0h3.237
				c105.919,113.515,224.362,198.177,374.526,209.771c63.979,4.939,88.478-52.833,94.957-136.765
				c1.75-22.672,2.185-47.247,1.728-73.006H1505.119z M2947.583,0c-87.642,44.813-163.338,174.576-240.296,306.515
				c-111.396,190.979-225.43,386.481-382.956,337.228c-221.663-69.304-308.427-312.683-396.136-558.709
				c-10.125-28.398-20.262-56.831-30.62-85.035h2.513c10.258,27.945,20.301,56.11,30.33,84.243
				c87.508,245.472,174.078,488.303,394.617,557.255c155.734,48.69,269.287-145.988,380.214-336.164
				C2781.19,175.135,2855.912,47.047,2942.352,0H2947.583z M3478.06,0c-43.991,88.038-82.57,195.305-122.264,305.675
				c-100.34,278.988-207.795,577.749-428.03,637.265c-45.83,12.386-68.773,3.449-75.461-21.289
				c-14.186-52.487,47.07-177.133,116.935-319.299C3086.504,363.738,3228.104,75.593,3077.095,0h4.998
				c146.607,79.667,5.953,365.938-110.737,603.384c-69.657,141.738-130.727,266.01-116.772,317.649
				c6.291,23.29,28.337,31.578,72.566,19.628c219.056-59.197,326.294-357.357,426.43-635.779
				C3393.139,194.892,3431.597,87.988,3475.419,0H3478.06z"/>
		</defs>
		<clipPath id="SVGID_00000140724800616007705570000015541872677405735850_">
			<use xlink:href="#SVGID_00000013153030737672528740000013818142179956697252_"  style="overflow:visible;"/>
		</clipPath>
		
			<linearGradient id="SVGID_00000085956585648305127940000006901903081421059200_" gradientUnits="userSpaceOnUse" x1="3323.0593" y1="-880.6472" x2="1392.2706" y2="1570.6842">
			<stop  offset="0" style="stop-color:#FF0000"/>
			<stop  offset="1" style="stop-color:#FFFF00"/>
		</linearGradient>
		
			<rect x="1028.314" y="0" style="clip-path:url(#SVGID_00000140724800616007705570000015541872677405735850_);fill:url(#SVGID_00000085956585648305127940000006901903081421059200_);" width="2449.746" height="955.326"/>
	</g>
	<g>
		<defs>
			<path id="SVGID_00000158721468151798693140000000564566610236704432_" d="M1479.578,0c0.733,29.056,0.416,56.742-1.54,82.07
				c-6.587,85.305-31.719,144.008-97.495,138.931C1225.011,208.993,1103.503,119.135,994.789,0h3.207
				c108.008,117.959,228.678,206.754,382.731,218.648c63.98,4.939,88.476-52.833,94.957-136.765
				c1.951-25.263,2.269-52.888,1.537-81.883H1479.578z M2942.975,0c-96.578,33.474-178.076,173.16-261.038,315.392
				c-111.395,190.98-225.429,386.482-382.955,337.23c-221.664-69.305-308.43-312.684-396.137-558.71
				C1891.657,62.531,1880.454,31.11,1868.953,0h2.515c11.398,30.852,22.508,62.007,33.6,93.122
				c87.51,245.471,174.079,488.303,394.619,557.253c155.732,48.69,269.284-145.987,380.212-336.164
				C2761.322,174.618,2841.342,37.461,2935.904,0H2942.975z M3457.213,0c-45.871,89.656-85.725,200.435-126.767,314.551
				c-100.34,278.988-207.794,577.75-428.028,637.266c-45.831,12.386-68.775,3.448-75.461-21.289
				c-14.188-52.487,47.069-177.133,116.935-319.299C3061.26,372.402,3203.02,83.945,3051.349,8.666
				c-6.978-3.463-13.869-6.34-20.68-8.666h6.855c4.913,1.904,9.866,4.071,14.866,6.553
				c153.778,76.324,11.452,365.93-106.383,605.708C2876.351,754,2815.28,878.272,2829.237,929.911
				c6.288,23.29,28.336,31.579,72.563,19.627c219.057-59.196,326.295-357.356,426.43-635.778
				c40.9-113.721,80.628-224.133,126.321-313.759H3457.213z"/>
		</defs>
		<clipPath id="SVGID_00000183949073295083285710000004961504045455158461_">
			<use xlink:href="#SVGID_00000158721468151798693140000000564566610236704432_"  style="overflow:visible;"/>
		</clipPath>
		
			<linearGradient id="SVGID_00000070089840437959043020000013562973660868222641_" gradientUnits="userSpaceOnUse" x1="3308.4399" y1="-892.163" x2="1377.6453" y2="1559.176">
			<stop  offset="0" style="stop-color:#FF0000"/>
			<stop  offset="1" style="stop-color:#FFFF00"/>
		</linearGradient>
		
			<rect x="994.789" y="0" style="clip-path:url(#SVGID_00000183949073295083285710000004961504045455158461_);fill:url(#SVGID_00000070089840437959043020000013562973660868222641_);" width="2462.424" height="964.203"/>
	</g>
	<g>
		<defs>
			<path id="SVGID_00000003069305323881950680000008207477480296680378_" d="M1453.973,0c1.036,32.297,0.868,63.053-1.285,90.947
				c-6.586,85.306-31.717,144.008-97.495,138.931C1195.82,217.575,1072.172,123.528,961.411,0h3.182
				c110.067,122.361,232.893,215.335,390.788,227.525c63.979,4.94,88.476-52.833,94.957-136.764
				c2.148-27.829,2.314-58.523,1.279-90.76H1453.973z M3436.471,0c-47.822,91.167-88.966,205.513-131.375,323.428
				c-100.338,278.988-207.793,577.75-428.029,637.266c-45.832,12.386-68.772,3.448-75.461-21.29
				c-14.187-52.487,47.068-177.132,116.935-319.299c117.37-238.827,259.129-527.284,107.457-602.563
				c-147.733-73.326-257.23,114.4-369.412,306.726c-111.396,190.978-225.429,386.482-382.954,337.23
				c-221.665-69.305-308.429-312.684-396.136-558.71C1865.245,68.421,1852.97,34.003,1840.31,0h2.517
				c12.555,33.747,24.734,67.897,36.891,101.999c87.509,245.471,174.079,488.303,394.619,557.254
				c155.731,48.69,269.284-145.987,380.212-336.165C2745.481,167.191,2834.667,14.339,2944.311,0h33.676
				c15.89,2.061,32.222,7.075,49.056,15.43c153.776,76.324,11.451,365.93-106.383,605.708
				c-69.657,141.738-130.729,266.01-116.773,317.651c6.29,23.289,28.338,31.577,72.566,19.625
				c219.057-59.196,326.295-357.355,426.431-635.778c42.261-117.505,83.27-231.48,130.901-322.636H3436.471z"/>
		</defs>
		<clipPath id="SVGID_00000065789657976657487990000007295816468346298777_">
			<use xlink:href="#SVGID_00000003069305323881950680000008207477480296680378_"  style="overflow:visible;"/>
		</clipPath>
		
			<linearGradient id="SVGID_00000134242495738428731300000008794778207973846966_" gradientUnits="userSpaceOnUse" x1="3280.3401" y1="-914.2961" x2="1349.5461" y2="1537.0421">
			<stop  offset="0" style="stop-color:#FF0000"/>
			<stop  offset="1" style="stop-color:#FFFF00"/>
		</linearGradient>
		
			<rect x="961.411" y="-55.782" style="clip-path:url(#SVGID_00000065789657976657487990000007295816468346298777_);fill:url(#SVGID_00000134242495738428731300000008794778207973846966_);" width="2475.061" height="1028.864"/>
	</g>
	<g>
		<defs>
			<path id="SVGID_00000072257776476842445950000002240923747991121048_" d="M1428.311,0c1.364,35.539,1.376,69.385-0.973,99.824
				c-6.587,85.305-31.718,144.008-97.497,138.93C1166.674,226.157,1040.953,127.877,928.167,0h3.156
				c112.1,126.719,237.016,223.92,398.706,236.403c63.979,4.94,88.476-52.835,94.957-136.766c2.346-30.373,2.33-64.157,0.968-99.638
				H1428.311z M3415.837,0c-49.848,92.56-92.295,210.53-136.091,332.305c-100.338,278.988-207.793,577.749-428.027,637.266
				c-45.834,12.386-68.774,3.447-75.461-21.29c-14.189-52.487,47.068-177.132,116.935-319.299
				C3010.56,390.155,3152.322,101.699,3000.65,26.42c-147.735-73.325-257.232,114.399-369.413,306.726
				c-111.395,190.979-225.43,386.48-382.955,337.228c-221.664-69.303-308.429-312.684-396.136-558.708
				c-13.32-37.363-26.664-74.784-40.504-111.666h2.519c13.733,36.627,26.982,73.781,40.206,110.876
				c87.51,245.471,174.08,488.302,394.618,557.255c155.733,48.688,269.286-145.99,380.214-336.165
				C2741.944,138.674,2851.99-49.992,3001.69,24.308c153.779,76.324,11.452,365.93-106.381,605.708
				c-69.658,141.738-130.728,266.01-116.775,317.65c6.291,23.288,28.338,31.577,72.566,19.625
				c219.057-59.197,326.295-357.355,426.431-635.779C3321.175,210.166,3363.478,92.574,3413.125,0H3415.837z"/>
		</defs>
		<clipPath id="SVGID_00000064314592831263115670000007906754375077994383_">
			<use xlink:href="#SVGID_00000072257776476842445950000002240923747991121048_"  style="overflow:visible;"/>
		</clipPath>
		
			<linearGradient id="SVGID_00000057856935850687788100000010153919450318755713_" gradientUnits="userSpaceOnUse" x1="3267.2803" y1="-924.5831" x2="1336.4946" y2="1526.7446">
			<stop  offset="0" style="stop-color:#FF0000"/>
			<stop  offset="1" style="stop-color:#FFFF00"/>
		</linearGradient>
		
			<rect x="928.167" y="-49.992" style="clip-path:url(#SVGID_00000064314592831263115670000007906754375077994383_);fill:url(#SVGID_00000057856935850687788100000010153919450318755713_);" width="2487.67" height="1031.951"/>
	</g>
	<g>
		<defs>
			<path id="SVGID_00000088837451446389111170000005118692421998932646_" d="M1402.595,0c1.711,38.779,1.938,75.738-0.607,108.702
				c-6.586,85.305-31.719,144.01-97.495,138.93C1137.569,234.745,1009.836,132.184,895.05,0h3.132
				c114.107,131.038,241.049,232.508,406.497,245.282c63.978,4.94,88.478-52.835,94.956-136.766
				c2.541-32.897,2.314-69.794,0.604-108.516H1402.595z M3395.329,0c-51.955,93.828-95.724,215.484-140.932,341.184
				c-100.341,278.99-207.793,577.75-428.029,637.268c-45.83,12.385-68.774,3.448-75.461-21.291
				c-14.185-52.487,47.069-177.132,116.935-319.299C2985.211,399.033,3126.97,110.577,2975.3,35.298
				c-147.733-73.324-257.231,114.4-369.412,306.728c-111.396,190.98-225.429,386.482-382.957,337.228
				c-221.663-69.302-308.426-312.684-396.135-558.708C1812.407,80.181,1797.99,39.747,1782.949,0h2.523
				c14.932,39.495,29.253,79.66,43.546,119.754c87.509,245.471,174.079,488.302,394.618,557.255
				c155.732,48.688,269.287-145.991,380.214-336.166c112.743-193.292,222.791-381.958,372.49-307.658
				c153.778,76.324,11.454,365.93-106.382,605.707c-69.657,141.739-130.728,266.011-116.772,317.652
				c6.291,23.288,28.338,31.577,72.567,19.625c219.055-59.197,326.291-357.354,426.429-635.781
				C3297.229,215.138,3340.846,93.867,3392.586,0H3395.329z"/>
		</defs>
		<clipPath id="SVGID_00000149372986791651950040000011152932262719584400_">
			<use xlink:href="#SVGID_00000088837451446389111170000005118692421998932646_"  style="overflow:visible;"/>
		</clipPath>
		
			<linearGradient id="SVGID_00000086677933878252389650000006232655412297344953_" gradientUnits="userSpaceOnUse" x1="3255.0483" y1="-934.2166" x2="1324.257" y2="1517.1182">
			<stop  offset="0" style="stop-color:#FF0000"/>
			<stop  offset="1" style="stop-color:#FFFF00"/>
		</linearGradient>
		
			<rect x="895.05" y="-41.114" style="clip-path:url(#SVGID_00000149372986791651950040000011152932262719584400_);fill:url(#SVGID_00000086677933878252389650000006232655412297344953_);" width="2500.279" height="1031.951"/>
	</g>
	<g>
		<defs>
			<path id="SVGID_00000127031205298561375190000002745151244289744299_" d="M1376.829,0c2.078,42.012,2.547,82.109-0.191,117.58
				c-6.586,85.305-31.719,144.009-97.495,138.93C1108.501,243.336,978.816,136.447,862.05,0h3.11
				c116.094,135.31,245.005,241.098,414.17,254.159c63.979,4.939,88.476-52.835,94.956-136.766
				c2.734-35.402,2.262-75.437,0.185-117.393H1376.829z M3374.954,0c-54.155,94.96-99.261,220.367-145.906,350.061
				c-100.339,278.99-207.795,577.75-428.029,637.268c-45.831,12.385-68.773,3.447-75.459-21.292
				c-14.188-52.486,47.068-177.131,116.934-319.299c117.369-238.827,259.129-527.283,107.458-602.563
				c-147.735-73.324-257.231,114.4-369.412,306.727c-111.396,190.98-225.43,386.481-382.955,337.23
				c-221.663-69.302-308.428-312.684-396.136-558.71c-15.462-43.373-30.954-86.828-47.219-129.42h2.524
				c16.154,42.345,31.551,85.528,46.917,128.631c87.509,245.471,174.079,488.302,394.618,557.255
				c155.733,48.688,269.285-145.989,380.212-336.164c112.743-193.293,222.792-381.961,372.493-307.66
				c153.776,76.325,11.452,365.931-106.384,605.708c-69.656,141.738-130.727,266.009-116.771,317.65
				c6.289,23.29,28.337,31.577,72.564,19.625c219.057-59.197,326.295-357.354,426.43-635.78
				C3273.316,220.021,3318.282,95.032,3372.217,0H3374.954z M3724,1123.009c-4.966-50.283-4.371-103.764,0-159.277v37.472
				c-1.455,30.897-1.559,61.044,0,90.239V1123.009z"/>
		</defs>
		<clipPath id="SVGID_00000180351003695155263880000012981490816602532231_">
			<use xlink:href="#SVGID_00000127031205298561375190000002745151244289744299_"  style="overflow:visible;"/>
		</clipPath>
		
			<linearGradient id="SVGID_00000124119386034473266450000004025054347899466128_" gradientUnits="userSpaceOnUse" x1="3380.5635" y1="-835.3541" x2="1449.7712" y2="1615.9817">
			<stop  offset="0" style="stop-color:#FF0000"/>
			<stop  offset="1" style="stop-color:#FFFF00"/>
		</linearGradient>
		
			<rect x="862.05" y="-32.238" style="clip-path:url(#SVGID_00000180351003695155263880000012981490816602532231_);fill:url(#SVGID_00000124119386034473266450000004025054347899466128_);" width="2861.95" height="1155.247"/>
	</g>
	<g>
		<defs>
			<path id="SVGID_00000085215057177171266500000008028721024587617444_" d="M1771.725,2100
				c-3.199-51.287-4.542-100.596-1.25-143.225c6.587-85.305,31.718-144.008,97.495-138.93
				c181.196,13.988,316.211,133.645,438.615,282.155h-3.052c-121.75-147.403-256.035-265.927-435.75-279.803
				c-63.979-4.939-88.478,52.835-94.957,136.765c-3.286,42.555-1.939,91.805,1.257,143.039H1771.725z M0,1506.343
				c82.208-200.729,183.36-375.339,346.095-419.316c45.831-12.385,68.773-3.448,75.46,21.29
				c14.186,52.487-47.069,177.131-116.935,319.3c-117.368,238.827-259.129,527.284-107.458,602.563
				c147.735,73.325,257.231-114.401,369.413-306.727c111.396-190.979,225.43-386.481,382.956-337.229
				c221.663,69.303,308.428,312.684,396.136,558.708c18.58,52.118,37.207,104.349,57.163,155.067h-2.538
				c-19.838-50.475-38.366-102.432-56.847-154.275c-87.509-245.471-174.078-488.303-394.617-557.255
				c-155.733-48.69-269.287,145.988-380.213,336.164c-112.743,193.292-222.791,381.959-372.491,307.658
				c-153.777-76.324-11.453-365.929,106.383-605.707c69.657-141.739,130.728-266.01,116.772-317.65
				c-6.289-23.289-28.338-31.578-72.566-19.626C183.507,1133.411,82.375,1310.167,0,1512.572V1506.343z"/>
		</defs>
		<clipPath id="SVGID_00000135658223194810063840000010469971443903810214_">
			<use xlink:href="#SVGID_00000085215057177171266500000008028721024587617444_"  style="overflow:visible;"/>
		</clipPath>
		
			<linearGradient id="SVGID_00000007409191145450230820000013858459811521712037_" gradientUnits="userSpaceOnUse" x1="765.6138" y1="2292.0256" x2="1486.4471" y2="987.858">
			<stop  offset="0" style="stop-color:#0000FF"/>
			<stop  offset="1" style="stop-color:#00FFFF"/>
		</linearGradient>
		
			<rect y="1074.642" style="clip-path:url(#SVGID_00000135658223194810063840000010469971443903810214_);fill:url(#SVGID_00000007409191145450230820000013858459811521712037_);" width="2306.586" height="1031.951"/>
	</g>
	<g>
		<defs>
			<path id="SVGID_00000104704524167268054130000015268765225514493073_" d="M1797.645,2100
				c-3.598-54.465-5.301-107.018-1.821-152.103c6.587-85.305,31.718-144.008,97.496-138.93
				c184.793,14.267,321.553,138.436,445.89,291.032h-3.035c-123.686-151.498-259.732-274.527-443.043-288.68
				c-63.978-4.939-88.476,52.834-94.956,136.765c-3.476,45.007-1.772,97.504,1.826,151.916H1797.645z M0,1561.514
				c86.97-226.626,191.603-434.763,371.444-483.364c45.831-12.385,68.774-3.448,75.461,21.29
				c14.188,52.487-47.068,177.131-116.935,319.299c-117.367,238.828-259.128,527.283-107.457,602.563
				c147.734,73.325,257.231-114.401,369.413-306.727c111.395-190.98,225.43-386.481,382.956-337.23
				c221.662,69.304,308.427,312.684,396.135,558.709c19.665,55.163,39.382,110.457,60.675,163.944h-2.543
				c-21.17-53.247-40.787-108.265-60.354-163.153c-87.509-245.472-174.079-488.303-394.618-557.255
				c-155.732-48.69-269.286,145.988-380.212,336.164c-112.745,193.292-222.792,381.959-372.491,307.658
				c-153.777-76.324-11.453-365.929,106.382-605.707c69.657-141.74,130.728-266.01,116.772-317.651
				c-6.289-23.289-28.337-31.578-72.565-19.626C191.74,1129.159,87.191,1339.817,0,1568.096V1561.514z"/>
		</defs>
		<clipPath id="SVGID_00000027566640134307421680000003186456812380867216_">
			<use xlink:href="#SVGID_00000104704524167268054130000015268765225514493073_"  style="overflow:visible;"/>
		</clipPath>
		
			<linearGradient id="SVGID_00000023996281860508446380000003863041319480670348_" gradientUnits="userSpaceOnUse" x1="774.8338" y1="2297.1223" x2="1495.6666" y2="992.9559">
			<stop  offset="0" style="stop-color:#0000FF"/>
			<stop  offset="1" style="stop-color:#00FFFF"/>
		</linearGradient>
		
			<rect y="1065.765" style="clip-path:url(#SVGID_00000027566640134307421680000003186456812380867216_);fill:url(#SVGID_00000023996281860508446380000003863041319480670348_);" width="2339.21" height="1034.235"/>
	</g>
	<g>
		<defs>
			<path id="SVGID_00000047761720335917435040000000528682676947777152_" d="M1823.595,2100
				c-3.999-57.621-6.091-113.452-2.421-160.981c6.587-85.305,31.718-144.008,97.495-138.93
				c188.366,14.542,326.824,143.275,453.089,299.91h-3.024c-125.616-155.546-263.373-283.13-450.252-297.557
				c-63.979-4.94-88.476,52.834-94.957,136.763c-3.664,47.451-1.57,103.225,2.429,160.794H1823.595z M0,1620.301
				c92.352-251.551,199.16-497.62,396.794-551.029c45.831-12.385,68.774-3.448,75.461,21.29
				c14.187,52.487-47.068,177.131-116.935,319.299c-117.368,238.828-259.128,527.285-107.457,602.563
				c147.734,73.325,257.231-114.401,369.413-306.727c111.394-190.98,225.429-386.481,382.955-337.23
				c221.663,69.304,308.428,312.684,396.136,558.709c20.755,58.221,41.566,116.588,64.227,172.823h-2.546
				c-22.537-55.997-43.246-114.088-63.902-172.031c-87.509-245.471-174.079-488.303-394.618-557.255
				c-155.732-48.69-269.286,145.988-380.213,336.166c-112.743,193.291-222.791,381.958-372.491,307.657
				c-153.777-76.324-11.452-365.929,106.383-605.707c69.657-141.74,130.728-266.01,116.772-317.651
				c-6.289-23.289-28.337-31.578-72.565-19.626C199.305,1125.087,92.654,1374.061,0,1627.131V1620.301z"/>
		</defs>
		<clipPath id="SVGID_00000066504622198303154890000011955584802006319491_">
			<use xlink:href="#SVGID_00000047761720335917435040000000528682676947777152_"  style="overflow:visible;"/>
		</clipPath>
		
			<linearGradient id="SVGID_00000027602473464812603710000006925675035170687151_" gradientUnits="userSpaceOnUse" x1="785.4206" y1="2302.9724" x2="1506.2537" y2="998.8051">
			<stop  offset="0" style="stop-color:#0000FF"/>
			<stop  offset="1" style="stop-color:#00FFFF"/>
		</linearGradient>
		
			<rect y="1056.886" style="clip-path:url(#SVGID_00000066504622198303154890000011955584802006319491_);fill:url(#SVGID_00000027602473464812603710000006925675035170687151_);" width="2371.758" height="1043.113"/>
	</g>
	<g>
		<defs>
			<path id="SVGID_00000151525074363071391340000008406903250491101079_" d="M1849.576,2100c-4.4-60.75-6.908-119.891-3.051-169.858
				c6.586-85.304,31.717-144.008,97.495-138.928c191.912,14.816,332.021,148.162,460.208,308.786h-3.007
				c-127.544-159.547-266.965-291.733-457.388-306.435c-63.979-4.94-88.478,52.834-94.957,136.765
				c-3.851,49.886-1.34,108.971,3.058,169.67H1849.576z M0,1681.307c98.693-274.205,206.207-562.557,422.144-620.911
				c45.831-12.386,68.774-3.449,75.46,21.289c14.188,52.487-47.068,177.132-116.935,319.299
				c-117.367,238.827-259.128,527.284-107.457,602.563c147.734,73.325,257.231-114.401,369.413-306.726
				c111.396-190.98,225.43-386.48,382.956-337.23c221.662,69.304,308.428,312.684,396.135,558.71
				c21.85,61.29,43.76,122.744,67.827,181.698h-2.548c-23.939-58.723-45.75-119.895-67.501-180.907
				c-87.509-245.472-174.079-488.303-394.618-557.256c-155.732-48.69-269.286,145.989-380.212,336.165
				c-112.745,193.292-222.791,381.958-372.491,307.658c-153.777-76.325-11.453-365.931,106.382-605.708
				c69.657-141.74,130.728-266.01,116.773-317.65c-6.29-23.289-28.338-31.577-72.566-19.627
				C206.376,1121.151,99.1,1412.792,0,1688.258V1681.307z"/>
		</defs>
		<clipPath id="SVGID_00000124122889255738945920000001527107480472206484_">
			<use xlink:href="#SVGID_00000151525074363071391340000008406903250491101079_"  style="overflow:visible;"/>
		</clipPath>
		
			<linearGradient id="SVGID_00000102539446791679126340000010956732673614895775_" gradientUnits="userSpaceOnUse" x1="795.9769" y1="2308.8086" x2="1516.8098" y2="1004.6419">
			<stop  offset="0" style="stop-color:#0000FF"/>
			<stop  offset="1" style="stop-color:#00FFFF"/>
		</linearGradient>
		
			<rect y="1048.009" style="clip-path:url(#SVGID_00000124122889255738945920000001527107480472206484_);fill:url(#SVGID_00000102539446791679126340000010956732673614895775_);" width="2404.229" height="1051.99"/>
	</g>
	<g>
		<defs>
			<path id="SVGID_00000042731878877454052640000017107530124484542903_" d="M1875.58,2100
				c-4.797-63.85-7.752-126.338-3.706-178.735c6.587-85.304,31.718-144.008,97.495-138.928
				c195.438,15.088,337.154,153.099,467.263,317.663h-2.997c-129.468-163.496-270.509-300.339-464.453-315.312
				c-63.979-4.941-88.476,52.834-94.957,136.765c-4.039,52.314-1.08,114.747,3.714,178.547H1875.58z M0,1742.752
				c6.477-17.861,12.957-35.869,19.466-53.967c100.338-278.989,207.793-577.75,428.028-637.266
				c45.831-12.386,68.773-3.449,75.461,21.29c14.186,52.487-47.069,177.132-116.935,319.299
				c-117.368,238.827-259.128,527.284-107.457,602.563c147.734,73.325,257.23-114.401,369.413-306.726
				c111.394-190.98,225.429-386.48,382.955-337.23c221.663,69.303,308.428,312.684,396.136,558.71
				c22.949,64.373,45.967,128.927,71.479,190.575h-2.554c-25.38-61.423-48.297-125.69-71.147-189.784
				c-87.51-245.472-174.079-488.304-394.619-557.256c-155.733-48.69-269.286,145.989-380.213,336.165
				c-112.743,193.292-222.791,381.958-372.491,307.658c-153.777-76.325-11.452-365.93,106.383-605.709
				c69.657-141.739,130.728-266.01,116.772-317.65c-6.289-23.289-28.337-31.577-72.565-19.627
				c-219.056,59.198-326.294,357.355-426.43,635.781c-7.251,20.16-14.464,40.212-21.68,60.068V1742.752z"/>
		</defs>
		<clipPath id="SVGID_00000142862526109205060310000003749297494391526052_">
			<use xlink:href="#SVGID_00000042731878877454052640000017107530124484542903_"  style="overflow:visible;"/>
		</clipPath>
		
			<linearGradient id="SVGID_00000002382896563792798850000002588384616027377824_" gradientUnits="userSpaceOnUse" x1="806.5083" y1="2314.6292" x2="1527.3417" y2="1010.4615">
			<stop  offset="0" style="stop-color:#0000FF"/>
			<stop  offset="1" style="stop-color:#00FFFF"/>
		</linearGradient>
		
			<rect y="1039.132" style="clip-path:url(#SVGID_00000142862526109205060310000003749297494391526052_);fill:url(#SVGID_00000002382896563792798850000002588384616027377824_);" width="2436.633" height="1060.868"/>
	</g>
	<g>
		<defs>
			<path id="SVGID_00000119108115960432519650000004177204542235219080_" d="M1901.607,2100
				c-5.184-66.92-8.616-132.788-4.383-187.612c6.586-85.304,31.717-144.008,97.495-138.928
				c198.942,15.358,342.22,158.087,474.253,326.54h-2.99c-131.393-167.394-274.005-308.946-471.449-324.189
				c-63.979-4.941-88.478,52.834-94.957,136.765c-4.227,54.74-0.791,120.555,4.392,187.425H1901.607z M0,1802.653
				c15.012-39.9,29.835-81.096,44.815-122.746c100.339-278.99,207.794-577.75,428.028-637.266
				c45.832-12.386,68.775-3.449,75.461,21.29c14.187,52.487-47.068,177.132-116.935,319.299
				c-117.367,238.827-259.128,527.284-107.457,602.563c147.734,73.325,257.231-114.4,369.413-306.726
				c111.395-190.98,225.43-386.481,382.956-337.23c221.662,69.303,308.428,312.684,396.135,558.71
				c24.054,67.472,48.184,135.137,75.182,199.453h-2.56c-26.862-64.092-50.891-131.473-74.844-198.661
				c-87.509-245.472-174.079-488.303-394.618-557.256c-155.732-48.69-269.286,145.989-380.213,336.166
				c-112.744,193.292-222.791,381.958-372.491,307.658c-153.777-76.325-11.453-365.93,106.382-605.708
				c69.657-141.739,130.728-266.01,116.773-317.651c-6.291-23.289-28.338-31.577-72.566-19.626
				c-219.057,59.197-326.295,357.355-426.43,635.781c-15.716,43.696-31.257,86.904-47.03,128.638V1802.653z"/>
		</defs>
		<clipPath id="SVGID_00000039127860768706412870000008450590025542121114_">
			<use xlink:href="#SVGID_00000119108115960432519650000004177204542235219080_"  style="overflow:visible;"/>
		</clipPath>
		
			<linearGradient id="SVGID_00000051372051759031171780000013835436587847482285_" gradientUnits="userSpaceOnUse" x1="817.0151" y1="2320.4365" x2="1537.8475" y2="1016.2705">
			<stop  offset="0" style="stop-color:#0000FF"/>
			<stop  offset="1" style="stop-color:#00FFFF"/>
		</linearGradient>
		
			<rect y="1030.255" style="clip-path:url(#SVGID_00000039127860768706412870000008450590025542121114_);fill:url(#SVGID_00000051372051759031171780000013835436587847482285_);" width="2468.972" height="1069.745"/>
	</g>
	<g>
		<defs>
			<path id="SVGID_00000014618590601110640310000009878834162014095260_" d="M1927.654,2100c-5.563-69.953-9.5-139.244-5.081-196.49
				c6.587-85.304,31.719-144.008,97.496-138.928c202.429,15.627,347.225,163.128,481.185,335.419h-2.985
				c-133.32-171.241-277.462-317.556-478.387-333.068c-63.979-4.94-88.477,52.835-94.956,136.765
				c-4.414,57.161-0.472,126.399,5.088,196.303H1927.654z M0,1859.13c23.885-59.452,46.834-123.232,70.165-188.101
				c100.339-278.99,207.794-577.751,428.028-637.266c45.832-12.386,68.775-3.449,75.461,21.29
				c14.187,52.487-47.068,177.132-116.936,319.299c-117.367,238.827-259.128,527.284-107.457,602.563
				c147.734,73.325,257.231-114.4,369.413-306.726c111.395-190.98,225.429-386.481,382.955-337.23
				c221.663,69.303,308.428,312.684,396.136,558.71c25.163,70.584,50.411,141.38,78.938,208.331h-2.568
				c-28.385-66.732-53.53-137.24-78.592-207.54c-87.509-245.472-174.079-488.303-394.618-557.255
				c-155.732-48.691-269.286,145.988-380.214,336.164c-112.743,193.292-222.791,381.958-372.491,307.658
				c-153.777-76.325-11.452-365.93,106.383-605.708c69.657-141.739,130.728-266.01,116.772-317.651
				c-6.29-23.289-28.337-31.577-72.566-19.626c-219.056,59.198-326.294,357.355-426.43,635.78
				C48.33,1738.689,24.686,1804.416,0,1865.449V1859.13z"/>
		</defs>
		<clipPath id="SVGID_00000047030537967578244450000014656476185990943876_">
			<use xlink:href="#SVGID_00000014618590601110640310000009878834162014095260_"  style="overflow:visible;"/>
		</clipPath>
		
			<linearGradient id="SVGID_00000007411606543832593930000003512043312459887293_" gradientUnits="userSpaceOnUse" x1="827.4995" y1="2326.2317" x2="1548.3324" y2="1022.0647">
			<stop  offset="0" style="stop-color:#0000FF"/>
			<stop  offset="1" style="stop-color:#00FFFF"/>
		</linearGradient>
		
			<rect y="1021.376" style="clip-path:url(#SVGID_00000047030537967578244450000014656476185990943876_);fill:url(#SVGID_00000007411606543832593930000003512043312459887293_);" width="2501.254" height="1078.623"/>
	</g>
	<g>
		<defs>
			<path id="SVGID_00000060747210178266477790000003638542048342416538_" d="M1953.718,2100
				c-5.928-72.949-10.4-145.699-5.794-205.367c6.586-85.305,31.718-144.009,97.495-138.93
				c205.897,15.896,352.167,168.222,488.059,344.296h-2.975c-135.252-175.033-280.883-326.165-485.271-341.945
				c-63.979-4.939-88.478,52.834-94.957,136.765c-4.6,59.58-0.124,132.28,5.803,205.18H1953.718z M0,1910.643
				c33.301-75.538,64.06-161.033,95.515-248.491c100.339-278.99,207.794-577.75,428.029-637.266
				c45.831-12.386,68.773-3.449,75.46,21.289c14.187,52.487-47.068,177.132-116.934,319.3
				c-117.368,238.827-259.129,527.284-107.458,602.564c147.735,73.324,257.231-114.402,369.413-306.727
				c111.395-190.98,225.43-386.481,382.956-337.23c221.663,69.304,308.428,312.684,396.135,558.709
				c26.278,73.712,52.648,147.655,82.749,217.208h-2.575c-29.955-69.339-56.221-142.994-82.396-216.417
				c-87.509-245.472-174.079-488.303-394.617-557.255c-155.733-48.691-269.286,145.988-380.213,336.164
				c-112.744,193.292-222.791,381.959-372.491,307.658c-153.777-76.324-11.453-365.931,106.383-605.707
				c69.657-141.74,130.727-266.01,116.772-317.652c-6.291-23.289-28.338-31.577-72.566-19.625
				c-219.057,59.197-326.295,357.355-426.43,635.779c-32.146,89.38-63.57,176.711-97.73,253.525V1910.643z"/>
		</defs>
		<clipPath id="SVGID_00000020365596485158984470000002121772547632035200_">
			<use xlink:href="#SVGID_00000060747210178266477790000003638542048342416538_"  style="overflow:visible;"/>
		</clipPath>
		
			<linearGradient id="SVGID_00000062883010254502211960000000839670684200418698_" gradientUnits="userSpaceOnUse" x1="837.9624" y1="2332.0134" x2="1558.7957" y2="1027.8462">
			<stop  offset="0" style="stop-color:#0000FF"/>
			<stop  offset="1" style="stop-color:#00FFFF"/>
		</linearGradient>
		
			<rect y="1012.499" style="clip-path:url(#SVGID_00000020365596485158984470000002121772547632035200_);fill:url(#SVGID_00000062883010254502211960000000839670684200418698_);" width="2533.478" height="1087.5"/>
	</g>
	<g>
		<defs>
			<path id="SVGID_00000016783543281457247690000011159911565761913230_" d="M1979.795,2100
				c-6.28-75.904-11.316-152.157-6.522-214.244c6.587-85.305,31.719-144.01,97.495-138.93
				c209.349,16.162,357.056,173.37,494.884,353.173h-2.966c-137.192-178.773-284.27-334.775-492.105-350.822
				c-63.979-4.939-88.477,52.834-94.956,136.765c-4.788,61.998,0.254,138.204,6.53,214.057H1979.795z M0,1956.104
				c43.408-87.503,81.593-193.638,120.865-302.83c100.339-278.989,207.793-577.75,428.028-637.266
				c45.832-12.386,68.775-3.449,75.461,21.289c14.187,52.487-47.068,177.132-116.935,319.299
				c-117.367,238.828-259.128,527.285-107.457,602.563c147.734,73.325,257.231-114.401,369.413-306.725
				c111.394-190.981,225.429-386.482,382.955-337.23c221.663,69.304,308.428,312.684,396.136,558.709
				c27.399,76.857,54.897,153.966,86.621,226.085h-2.584c-31.573-71.912-58.963-148.729-86.258-225.294
				c-87.509-245.472-174.079-488.303-394.618-557.255c-155.732-48.691-269.285,145.988-380.214,336.164
				c-112.743,193.292-222.791,381.959-372.491,307.658c-153.777-76.324-11.452-365.931,106.383-605.707
				c69.657-141.74,130.728-266.01,116.772-317.652c-6.29-23.289-28.337-31.577-72.566-19.625
				c-219.055,59.197-326.294,357.355-426.43,635.779C83.147,1765.097,44.339,1872.992,0,1961.448V1956.104z"/>
		</defs>
		<clipPath id="SVGID_00000065045815088135232400000000842914381589313440_">
			<use xlink:href="#SVGID_00000016783543281457247690000011159911565761913230_"  style="overflow:visible;"/>
		</clipPath>
		
			<linearGradient id="SVGID_00000005226528651916014280000000240168207649196726_" gradientUnits="userSpaceOnUse" x1="848.4061" y1="2337.7856" x2="1569.2385" y2="1033.6195">
			<stop  offset="0" style="stop-color:#0000FF"/>
			<stop  offset="1" style="stop-color:#00FFFF"/>
		</linearGradient>
		
			<rect y="1003.622" style="clip-path:url(#SVGID_00000065045815088135232400000000842914381589313440_);fill:url(#SVGID_00000005226528651916014280000000240168207649196726_);" width="2565.653" height="1096.377"/>
	</g>
	<g>
		<defs>
			<path id="SVGID_00000158747702673456636190000001995262555037164694_" d="M2005.885,2100
				c-6.612-78.811-12.243-158.614-7.262-223.122c6.587-85.305,31.718-144.01,97.495-138.93
				c212.787,16.427,361.891,178.572,501.668,362.052h-2.959c-139.139-182.46-287.628-343.389-498.896-359.7
				c-63.979-4.939-88.477,52.834-94.957,136.765c-4.974,64.417,0.664,144.174,7.272,222.935H2005.885z M0,1994.988
				c54.292-95.023,99.481-220.653,146.215-350.592c100.338-278.989,207.793-577.75,428.028-637.266
				c45.832-12.386,68.773-3.449,75.461,21.289c14.186,52.487-47.07,177.132-116.935,319.299
				C415.4,1586.546,273.64,1875.003,425.311,1950.283c147.734,73.324,257.23-114.401,369.413-306.726
				c111.394-190.981,225.429-386.482,382.955-337.23c221.664,69.304,308.428,312.684,396.136,558.709
				c28.526,80.018,57.157,160.313,90.556,234.964h-2.594c-33.243-74.447-61.763-154.449-90.184-234.172
				c-87.51-245.472-174.079-488.303-394.618-557.255c-155.733-48.691-269.286,145.988-380.214,336.164
				c-112.743,193.292-222.791,381.959-372.491,307.658c-153.777-76.324-11.453-365.931,106.383-605.707
				c69.657-141.74,130.728-266.01,116.772-317.652c-6.29-23.289-28.338-31.577-72.566-19.626
				c-219.056,59.197-326.294,357.356-426.43,635.779C101.074,1776.857,55.293,1904.097,0,1999.756V1994.988z"/>
		</defs>
		<clipPath id="SVGID_00000063601699311068959760000009329596639280866702_">
			<use xlink:href="#SVGID_00000158747702673456636190000001995262555037164694_"  style="overflow:visible;"/>
		</clipPath>
		
			<linearGradient id="SVGID_00000139976977705101410190000014147503586254921659_" gradientUnits="userSpaceOnUse" x1="858.8336" y1="2343.5498" x2="1579.6666" y2="1039.3828">
			<stop  offset="0" style="stop-color:#0000FF"/>
			<stop  offset="1" style="stop-color:#00FFFF"/>
		</linearGradient>
		
			<rect y="994.744" style="clip-path:url(#SVGID_00000063601699311068959760000009329596639280866702_);fill:url(#SVGID_00000139976977705101410190000014147503586254921659_);" width="2597.787" height="1105.256"/>
	</g>
	<g>
		<defs>
			<path id="SVGID_00000119093442110908957430000002648066045149983914_" d="M2031.983,2100
				c-6.922-81.672-13.177-165.068-8.01-231.999c6.586-85.305,31.717-144.01,97.496-138.93
				c216.212,16.691,366.674,183.829,508.411,370.929h-2.951c-141.099-186.089-290.959-352.002-505.649-368.577
				c-63.978-4.94-88.476,52.834-94.956,136.765c-5.162,66.84,1.101,150.193,8.02,231.813H2031.983z M0,2027.096
				c65.978-98.042,117.749-241.948,171.563-391.577c100.34-278.989,207.794-577.75,428.028-637.266
				c45.832-12.386,68.775-3.449,75.461,21.289c14.187,52.487-47.068,177.132-116.935,319.299
				c-117.367,238.827-259.128,527.284-107.457,602.564c147.733,73.324,257.231-114.402,369.412-306.726
				c111.395-190.981,225.43-386.482,382.956-337.229c221.662,69.303,308.428,312.684,396.135,558.709
				c29.661,83.199,59.43,166.701,94.559,243.841h-2.593c-34.968-76.945-64.633-160.147-94.188-243.05
				c-87.509-245.472-174.079-488.303-394.618-557.255c-155.732-48.691-269.285,145.987-380.212,336.164
				c-112.744,193.292-222.791,381.959-372.491,307.658c-153.777-76.324-11.453-365.93,106.382-605.707
				c69.657-141.739,130.728-266.01,116.772-317.651c-6.29-23.289-28.337-31.577-72.565-19.625
				c-219.057,59.197-326.295,357.356-426.43,635.779C119.379,1787.569,67.056,1932.983,0,2031.379V2027.096z"/>
		</defs>
		<clipPath id="SVGID_00000135684156493859671910000001372650423752844980_">
			<use xlink:href="#SVGID_00000119093442110908957430000002648066045149983914_"  style="overflow:visible;"/>
		</clipPath>
		
			<linearGradient id="SVGID_00000104704292920902693550000016516830215848637321_" gradientUnits="userSpaceOnUse" x1="869.2458" y1="2349.3052" x2="1590.079" y2="1045.1379">
			<stop  offset="0" style="stop-color:#0000FF"/>
			<stop  offset="1" style="stop-color:#00FFFF"/>
		</linearGradient>
		
			<rect y="985.867" style="clip-path:url(#SVGID_00000135684156493859671910000001372650423752844980_);fill:url(#SVGID_00000104704292920902693550000016516830215848637321_);" width="2629.88" height="1114.133"/>
	</g>
	<g>
		<defs>
			<path id="SVGID_00000027592595320578402520000008933386338630496899_" d="M2058.089,2100
				c-7.208-84.478-14.121-171.517-8.766-240.876c6.586-85.306,31.718-144.008,97.496-138.93
				c219.625,16.955,371.41,189.145,515.12,379.806h-2.943c-143.072-189.661-294.266-360.615-512.363-377.454
				c-63.979-4.939-88.478,52.834-94.957,136.765c-5.348,69.265,1.57,156.262,8.774,240.69H2058.089z M0,2052.663
				c78.465-96.697,136.394-257.748,196.913-426.021c100.34-278.988,207.794-577.749,428.029-637.266
				c45.832-12.385,68.773-3.447,75.461,21.291c14.186,52.487-47.07,177.131-116.935,319.299
				C466.1,1568.793,324.339,1857.249,476.01,1932.529c147.735,73.325,257.231-114.4,369.412-306.726
				c111.395-190.98,225.43-386.482,382.956-337.23c221.663,69.303,308.428,312.684,396.136,558.709
				c30.802,86.402,61.725,173.128,98.642,252.718h-2.602c-36.751-79.403-67.567-165.825-98.263-251.927
				c-87.509-245.472-174.078-488.303-394.617-557.255c-155.733-48.69-269.287,145.988-380.214,336.164
				C734.718,1820.275,624.67,2008.941,474.97,1934.64c-153.777-76.324-11.453-365.929,106.383-605.707
				c69.657-141.739,130.728-266.01,116.772-317.651c-6.291-23.289-28.338-31.578-72.566-19.626
				c-219.057,59.197-326.294,357.355-426.43,635.781C138.061,1797.232,79.615,1959.68,0,2056.49V2052.663z"/>
		</defs>
		<clipPath id="SVGID_00000067956355738528980320000006355628561112130468_">
			<use xlink:href="#SVGID_00000027592595320578402520000008933386338630496899_"  style="overflow:visible;"/>
		</clipPath>
		
			<linearGradient id="SVGID_00000137089590905504352160000007888563692192513674_" gradientUnits="userSpaceOnUse" x1="879.645" y1="2355.0535" x2="1600.4777" y2="1050.8872">
			<stop  offset="0" style="stop-color:#0000FF"/>
			<stop  offset="1" style="stop-color:#00FFFF"/>
		</linearGradient>
		
			<rect y="976.991" style="clip-path:url(#SVGID_00000067956355738528980320000006355628561112130468_);fill:url(#SVGID_00000137089590905504352160000007888563692192513674_);" width="2661.938" height="1123.009"/>
	</g>
	<g>
		<defs>
			<path id="SVGID_00000126308148793120453200000007132908599660678843_" d="M2084.197,2100
				c-7.468-87.23-15.067-177.963-9.525-249.754c6.587-85.305,31.718-144.008,97.497-138.929
				c223.03,17.218,376.1,194.519,521.797,388.683h-2.939c-145.057-193.176-297.549-369.23-519.046-386.332
				c-63.978-4.939-88.476,52.835-94.956,136.765c-5.536,71.696,2.072,162.389,9.532,249.567H2084.197z M0,2071.946
				c91.708-91.243,155.408-268.293,222.263-454.181c100.34-278.988,207.794-577.749,428.028-637.266
				c45.832-12.385,68.775-3.447,75.461,21.291c14.187,52.487-47.068,177.131-116.935,319.3
				c-117.368,238.827-259.128,527.283-107.457,602.563c147.733,73.325,257.231-114.4,369.412-306.727
				c111.395-190.979,225.429-386.481,382.955-337.229c221.663,69.303,308.428,312.684,396.136,558.708
				c31.953,89.627,64.036,179.599,102.805,261.595h-2.613c-38.595-81.818-70.57-171.481-102.413-260.804
				c-87.509-245.472-174.079-488.303-394.618-557.255c-155.732-48.69-269.285,145.988-380.213,336.164
				c-112.743,193.292-222.792,381.959-372.492,307.658c-153.777-76.324-11.452-365.929,106.383-605.707
				c69.657-141.739,130.728-266.01,116.772-317.65c-6.29-23.289-28.337-31.578-72.565-19.626
				c-219.057,59.197-326.295,357.356-426.431,635.781C157.108,1805.879,92.934,1984.275,0,2075.436V2071.946z"/>
		</defs>
		<clipPath id="SVGID_00000103262147719030220410000012710918839191420852_">
			<use xlink:href="#SVGID_00000126308148793120453200000007132908599660678843_"  style="overflow:visible;"/>
		</clipPath>
		
			<linearGradient id="SVGID_00000063597599608980048160000014503203810856955069_" gradientUnits="userSpaceOnUse" x1="890.0325" y1="2360.7935" x2="1610.8656" y2="1056.6263">
			<stop  offset="0" style="stop-color:#0000FF"/>
			<stop  offset="1" style="stop-color:#00FFFF"/>
		</linearGradient>
		
			<rect y="968.114" style="clip-path:url(#SVGID_00000103262147719030220410000012710918839191420852_);fill:url(#SVGID_00000063597599608980048160000014503203810856955069_);" width="2693.965" height="1131.886"/>
	</g>
	<g>
		<defs>
			<path id="SVGID_00000074422598481728685150000008020075862548619701_" d="M2110.307,2100l-0.43-5.028
				c-7.571-88.406-15.479-180.756-9.855-253.604c6.587-85.305,31.719-144.008,97.496-138.929
				c226.428,17.48,380.746,199.953,528.448,397.561h-2.935c-147.061-196.631-300.815-377.848-525.699-395.21
				c-63.979-4.939-88.476,52.835-94.957,136.765c-5.613,72.697,2.287,164.928,9.847,253.221l0.448,5.225H2110.307z M0,2085.475
				c105.668-81.981,174.768-274.045,247.613-476.589c100.338-278.988,207.792-577.749,428.028-637.266
				c45.832-12.385,68.775-3.447,75.461,21.29c14.186,52.487-47.07,177.131-116.935,319.3
				c-117.369,238.827-259.128,527.284-107.457,602.563c147.733,73.325,257.231-114.401,369.412-306.727
				c111.395-190.979,225.429-386.481,382.955-337.229c221.663,69.303,308.429,312.684,396.136,558.708
				c33.109,92.874,66.362,186.117,107.046,270.474h-2.623c-40.503-84.185-73.645-177.117-106.644-269.682
				c-87.51-245.471-174.079-488.303-394.618-557.255c-155.732-48.69-269.286,145.988-380.214,336.164
				c-112.743,193.292-222.792,381.959-372.492,307.658c-153.777-76.324-11.452-365.929,106.383-605.707
				c69.657-141.739,130.728-266.01,116.772-317.651c-6.29-23.289-28.337-31.578-72.566-19.626
				c-219.055,59.197-326.294,357.355-426.43,635.781C176.502,1813.559,106.956,2006.847,0,2088.611V2085.475z"/>
		</defs>
		<clipPath id="SVGID_00000083075118650308358750000010208759591760773032_">
			<use xlink:href="#SVGID_00000074422598481728685150000008020075862548619701_"  style="overflow:visible;"/>
		</clipPath>
		
			<linearGradient id="SVGID_00000126321316904780718060000003691664045139569802_" gradientUnits="userSpaceOnUse" x1="900.4087" y1="2366.5286" x2="1621.2411" y2="1062.3628">
			<stop  offset="0" style="stop-color:#0000FF"/>
			<stop  offset="1" style="stop-color:#00FFFF"/>
		</linearGradient>
		
			<rect y="959.235" style="clip-path:url(#SVGID_00000083075118650308358750000010208759591760773032_);fill:url(#SVGID_00000126321316904780718060000003691664045139569802_);" width="2725.965" height="1140.764"/>
	</g>
	<g>
		<defs>
			<path id="SVGID_00000088826791752349666020000011032664516414329777_" d="M2136.415,2100l-1.19-13.906
				c-7.57-88.405-15.478-180.755-9.854-253.603c6.586-85.305,31.718-144.008,97.495-138.93
				c229.814,17.742,385.348,205.45,535.073,406.439h-2.935c-149.08-200.022-304.06-386.464-532.325-404.087
				c-63.979-4.939-88.478,52.834-94.957,136.765c-5.613,72.697,2.287,164.928,9.847,253.22l1.206,14.102H2136.415z M0,2093.665
				c120.287-69.247,194.451-275.356,272.962-493.656c100.34-278.988,207.794-577.749,428.028-637.266
				c45.832-12.385,68.775-3.448,75.461,21.291c14.188,52.487-47.068,177.131-116.935,319.299
				c-117.368,238.828-259.128,527.285-107.457,602.563c147.733,73.325,257.231-114.4,369.412-306.726
				c111.396-190.98,225.43-386.481,382.956-337.23c221.662,69.304,308.428,312.684,396.135,558.709
				c34.276,96.144,68.704,192.684,111.373,279.351h-2.635c-42.481-86.505-76.796-182.728-110.96-278.56
				c-87.509-245.472-174.079-488.303-394.618-557.255c-155.732-48.689-269.286,145.988-380.212,336.164
				c-112.745,193.292-222.792,381.959-372.492,307.658c-153.777-76.324-11.453-365.929,106.382-605.707
				c69.657-141.74,130.728-266.01,116.773-317.65c-6.291-23.289-28.338-31.578-72.566-19.626
				c-219.057,59.197-326.295,357.355-426.43,635.78C196.215,1820.353,121.635,2027.62,0,2096.557V2093.665z"/>
		</defs>
		<clipPath id="SVGID_00000080165989750800092790000017962863767706297238_">
			<use xlink:href="#SVGID_00000088826791752349666020000011032664516414329777_"  style="overflow:visible;"/>
		</clipPath>
		
			<linearGradient id="SVGID_00000011723341238456251110000002610105413983005872_" gradientUnits="userSpaceOnUse" x1="910.776" y1="2372.259" x2="1631.609" y2="1068.0923">
			<stop  offset="0" style="stop-color:#0000FF"/>
			<stop  offset="1" style="stop-color:#00FFFF"/>
		</linearGradient>
		
			<rect y="950.358" style="clip-path:url(#SVGID_00000080165989750800092790000017962863767706297238_);fill:url(#SVGID_00000011723341238456251110000002610105413983005872_);" width="2757.94" height="1149.641"/>
	</g>
	<g>
		<defs>
			<path id="SVGID_00000163056504727013135860000003857372860625947276_" d="M2162.52,2100c-0.639-7.555-1.29-15.154-1.943-22.782
				c-7.571-88.405-15.48-180.755-9.855-253.604c6.587-85.304,31.719-144.008,97.496-138.928
				c233.193,18.002,389.905,211.006,541.675,415.315h-2.93c-151.122-203.352-307.293-395.08-538.931-412.963
				c-63.979-4.941-88.476,52.834-94.957,136.765c-5.613,72.695,2.287,164.928,9.847,253.219c0.659,7.695,1.316,15.359,1.959,22.979
				H2162.52z M0,2097.036c135.511-53.346,214.429-272.67,298.313-505.903c100.338-278.989,207.793-577.75,428.028-637.266
				c45.832-12.386,68.773-3.449,75.461,21.289c14.186,52.487-47.07,177.132-116.935,319.299
				c-117.369,238.827-259.128,527.284-107.457,602.563c147.733,73.325,257.23-114.4,369.412-306.726
				c111.395-190.98,225.429-386.48,382.955-337.23c221.663,69.304,308.428,312.684,396.136,558.71
				c35.45,99.439,71.065,199.303,115.791,288.227h-2.649c-44.529-88.772-80.028-188.314-115.364-287.435
				c-87.51-245.472-174.079-488.303-394.618-557.256c-155.733-48.69-269.286,145.989-380.213,336.166
				c-112.743,193.292-222.792,381.958-372.492,307.658c-153.777-76.325-11.453-365.93,106.383-605.708
				c69.657-141.74,130.728-266.01,116.772-317.651c-6.29-23.289-28.338-31.577-72.566-19.627
				c-219.055,59.197-326.294,357.356-426.43,635.781C216.223,1826.33,136.917,2046.743,0,2099.735V2097.036z"/>
		</defs>
		<clipPath id="SVGID_00000048478669502877503970000016241386570644089773_">
			<use xlink:href="#SVGID_00000163056504727013135860000003857372860625947276_"  style="overflow:visible;"/>
		</clipPath>
		
			<linearGradient id="SVGID_00000145022321882657134750000009475784502472343197_" gradientUnits="userSpaceOnUse" x1="921.1346" y1="2377.9834" x2="1641.9673" y2="1073.8169">
			<stop  offset="0" style="stop-color:#0000FF"/>
			<stop  offset="1" style="stop-color:#00FFFF"/>
		</linearGradient>
		
			<rect y="941.481" style="clip-path:url(#SVGID_00000048478669502877503970000016241386570644089773_);fill:url(#SVGID_00000145022321882657134750000009475784502472343197_);" width="2789.892" height="1158.519"/>
	</g>
	<g>
		<defs>
			<path id="SVGID_00000073689026223629045140000018152367551670586032_" d="M2188.616,2100c-0.877-10.469-1.78-21.035-2.69-31.661
				c-7.571-88.404-15.479-180.755-9.855-253.604c6.586-85.304,31.719-144.008,97.496-138.928
				c236.569,18.263,394.427,216.631,548.263,424.193h-2.928c-153.187-206.616-310.515-403.698-545.521-421.841
				c-63.979-4.941-88.478,52.834-94.958,136.765c-5.612,72.695,2.287,164.928,9.847,253.219c0.916,10.691,1.826,21.324,2.707,31.858
				H2188.616z M0,2096.008c151.287-34.584,234.682-266.345,323.662-513.753c100.339-278.989,207.794-577.75,428.029-637.266
				c45.832-12.386,68.773-3.449,75.46,21.29c14.188,52.487-47.068,177.132-116.934,319.299
				c-117.369,238.827-259.129,527.284-107.458,602.563c147.735,73.325,257.231-114.401,369.412-306.726
				c111.396-190.979,225.43-386.48,382.956-337.229c221.663,69.304,308.428,312.684,396.136,558.71
				c36.634,102.763,73.445,205.978,120.306,297.105h-2.662c-46.656-90.984-83.347-193.875-119.867-296.314
				c-87.509-245.472-174.079-488.303-394.617-557.256c-155.733-48.69-269.287,145.989-380.214,336.166
				c-112.743,193.292-222.792,381.958-372.492,307.658c-153.777-76.325-11.453-365.93,106.383-605.708
				c69.657-141.74,130.728-266.01,116.772-317.65c-6.291-23.289-28.338-31.577-72.566-19.627
				c-219.057,59.198-326.294,357.356-426.43,635.78C236.502,1831.552,152.742,2064.329,0,2098.561V2096.008z"/>
		</defs>
		<clipPath id="SVGID_00000032619458545426632340000006936070926176821896_">
			<use xlink:href="#SVGID_00000073689026223629045140000018152367551670586032_"  style="overflow:visible;"/>
		</clipPath>
		
			<linearGradient id="SVGID_00000145771483375640742600000005431350992447694774_" gradientUnits="userSpaceOnUse" x1="931.487" y1="2383.7061" x2="1652.3204" y2="1079.5385">
			<stop  offset="0" style="stop-color:#0000FF"/>
			<stop  offset="1" style="stop-color:#00FFFF"/>
		</linearGradient>
		
			<rect y="932.603" style="clip-path:url(#SVGID_00000032619458545426632340000006936070926176821896_);fill:url(#SVGID_00000145771483375640742600000005431350992447694774_);" width="2821.83" height="1167.397"/>
	</g>
	<g>
		<defs>
			<path id="SVGID_00000183237326358352237760000009575787562980751508_" d="M2214.703,2100c-1.101-13.362-2.26-26.902-3.428-40.538
				c-7.571-88.404-15.478-180.755-9.855-253.604c6.587-85.304,31.719-144.008,97.497-138.928
				c239.94,18.523,398.908,222.32,554.836,433.07h-2.924c-155.274-209.816-313.728-412.316-552.1-430.718
				c-63.979-4.941-88.476,52.834-94.956,136.765c-5.614,72.695,2.286,164.928,9.845,253.219c1.173,13.702,2.338,27.308,3.443,40.735
				H2214.703z M0,2090.997c167.568-13.234,255.183-256.73,349.012-517.619c100.34-278.989,207.793-577.75,428.028-637.266
				c45.832-12.386,68.775-3.449,75.461,21.29c14.188,52.487-47.068,177.132-116.935,319.299
				c-117.367,238.827-259.128,527.284-107.457,602.563c147.733,73.325,257.231-114.401,369.412-306.726
				c111.396-190.98,225.429-386.48,382.955-337.23c221.663,69.303,308.428,312.684,396.136,558.71
				c37.83,106.114,75.844,212.713,124.924,305.982h-2.679c-48.862-93.137-86.755-199.405-124.467-305.191
				c-87.509-245.472-174.079-488.303-394.618-557.256c-155.732-48.69-269.285,145.989-380.213,336.165
				c-112.743,193.293-222.791,381.958-372.491,307.658c-153.777-76.325-11.452-365.931,106.383-605.708
				c69.657-141.739,130.728-266.01,116.772-317.651c-6.29-23.289-28.337-31.577-72.566-19.626
				c-219.055,59.198-326.294,357.355-426.43,635.781c-94.2,261.917-182.158,506.37-351.227,519.291V2090.997z"/>
		</defs>
		<clipPath id="SVGID_00000134966059658947704420000011237602631224784036_">
			<use xlink:href="#SVGID_00000183237326358352237760000009575787562980751508_"  style="overflow:visible;"/>
		</clipPath>
		
			<linearGradient id="SVGID_00000096030651635059836680000005493849597705490108_" gradientUnits="userSpaceOnUse" x1="941.8345" y1="2389.4243" x2="1662.6672" y2="1085.2581">
			<stop  offset="0" style="stop-color:#0000FF"/>
			<stop  offset="1" style="stop-color:#00FFFF"/>
		</linearGradient>
		
			<rect y="923.725" style="clip-path:url(#SVGID_00000134966059658947704420000011237602631224784036_);fill:url(#SVGID_00000096030651635059836680000005493849597705490108_);" width="2853.753" height="1176.274"/>
	</g>
	<g>
		<defs>
			<path id="SVGID_00000083091077524735869490000009098028404238152891_" d="M2240.776,2100c-1.309-16.226-2.724-32.75-4.151-49.415
				c-7.57-88.404-15.478-180.755-9.854-253.604c6.586-85.304,31.719-144.008,97.496-138.928
				c243.307,18.783,403.355,228.077,561.4,441.947h-2.923c-157.389-212.948-316.932-420.933-558.664-439.596
				c-63.979-4.94-88.477,52.834-94.957,136.765c-5.613,72.696,2.287,164.928,9.847,253.219c1.433,16.731,2.854,33.321,4.168,49.612
				H2240.776z M0,2082.419c184.315,10.474,275.908-244.173,374.361-517.918c100.34-278.99,207.794-577.751,428.029-637.266
				c45.832-12.386,68.773-3.449,75.46,21.29c14.188,52.487-47.068,177.132-116.934,319.299
				c-117.369,238.827-259.129,527.284-107.458,602.563c147.735,73.325,257.231-114.401,369.412-306.726
				c111.396-190.98,225.43-386.48,382.956-337.23c221.663,69.303,308.428,312.684,396.135,558.71
				c39.036,109.495,78.267,219.509,129.65,314.86h-2.693c-51.156-95.23-90.263-204.908-129.178-314.068
				c-87.509-245.472-174.079-488.304-394.617-557.256c-155.733-48.69-269.287,145.989-380.213,336.166
				c-112.745,193.292-222.792,381.958-372.491,307.658c-153.778-76.325-11.453-365.931,106.383-605.708
				c69.657-141.739,130.727-266.01,116.772-317.651c-6.29-23.289-28.338-31.577-72.566-19.626
				c-219.057,59.197-326.295,357.355-426.43,635.781C277.775,1840.006,185.86,2095.56,0,2084.845V2082.419z"/>
		</defs>
		<clipPath id="SVGID_00000049944487635668522430000003874426297057318550_">
			<use xlink:href="#SVGID_00000083091077524735869490000009098028404238152891_"  style="overflow:visible;"/>
		</clipPath>
		
			<linearGradient id="SVGID_00000118370665157839488870000015995425371649267883_" gradientUnits="userSpaceOnUse" x1="952.1777" y1="2395.1421" x2="1673.0109" y2="1090.975">
			<stop  offset="0" style="stop-color:#0000FF"/>
			<stop  offset="1" style="stop-color:#00FFFF"/>
		</linearGradient>
		
			<rect y="914.848" style="clip-path:url(#SVGID_00000049944487635668522430000003874426297057318550_);fill:url(#SVGID_00000118370665157839488870000015995425371649267883_);" width="2885.667" height="1185.152"/>
	</g>
	<g>
		<defs>
			<path id="SVGID_00000060718864305786865590000004530930101487420339_" d="M2266.835,2100c-1.501-19.06-3.171-38.577-4.859-58.292
				c-7.571-88.404-15.479-180.755-9.855-253.603c6.587-85.305,31.719-144.009,97.496-138.93
				c246.674,19.043,407.768,233.902,567.959,450.825h-2.922c-159.53-216.008-320.135-429.55-565.224-448.473
				c-63.979-4.939-88.476,52.834-94.957,136.765c-5.612,72.697,2.288,164.928,9.847,253.219c1.694,19.781,3.37,39.364,4.875,58.489
				H2266.835z M0,2070.465c201.456,36.27,296.849-228.836,399.712-514.841c100.34-278.99,207.793-577.751,428.028-637.266
				c45.832-12.386,68.775-3.449,75.461,21.289c14.188,52.487-47.068,177.133-116.935,319.299
				c-117.369,238.828-259.128,527.285-107.457,602.564c147.733,73.325,257.231-114.401,369.412-306.726
				c111.395-190.98,225.429-386.481,382.955-337.23c221.663,69.304,308.428,312.684,396.136,558.709
				c40.252,112.91,80.711,226.373,134.49,323.737h-2.711c-53.54-97.257-93.87-210.377-134.001-322.945
				c-87.51-245.472-174.079-488.303-394.618-557.255c-155.732-48.691-269.285,145.988-380.213,336.164
				c-112.743,193.292-222.791,381.959-372.491,307.658c-153.777-76.324-11.452-365.93,106.383-605.707
				c69.657-141.74,130.728-266.01,116.772-317.652c-6.29-23.289-28.337-31.577-72.566-19.625
				c-219.055,59.197-326.294,357.354-426.43,635.779C298.736,1843.329,203.037,2109.289,0,2072.885V2070.465z"/>
		</defs>
		<clipPath id="SVGID_00000176765112022126358210000015526490968728589211_">
			<use xlink:href="#SVGID_00000060718864305786865590000004530930101487420339_"  style="overflow:visible;"/>
		</clipPath>
		
			<linearGradient id="SVGID_00000096775445092089416040000013637898714630203048_" gradientUnits="userSpaceOnUse" x1="964.4862" y1="2401.9446" x2="1685.3187" y2="1097.7783">
			<stop  offset="0" style="stop-color:#0000FF"/>
			<stop  offset="1" style="stop-color:#00FFFF"/>
		</linearGradient>
		
			<rect y="905.971" style="clip-path:url(#SVGID_00000176765112022126358210000015526490968728589211_);fill:url(#SVGID_00000096775445092089416040000013637898714630203048_);" width="2917.575" height="1203.318"/>
	</g>
	<g>
		<defs>
			<path id="SVGID_00000084530177697712353320000015123557418437616549_" d="M2292.872,2100c-1.669-21.86-3.595-44.382-5.547-67.17
				c-7.571-88.405-15.479-180.755-9.855-253.603c6.587-85.305,31.719-144.009,97.496-138.93
				c249.301,19.246,411.191,238.504,573.079,457.759l1.435,1.944h-2.922l-0.403-0.546
				c-161.566-218.818-323.135-437.64-571.376-456.805c-63.979-4.939-88.478,52.834-94.957,136.765
				c-5.613,72.697,2.286,164.928,9.846,253.219c1.957,22.854,3.891,45.442,5.562,67.368H2292.872z M0,2055.622
				c219.002,64.033,317.973-211.125,425.062-508.877c100.338-278.99,207.792-577.75,428.028-637.266
				c45.832-12.386,68.773-3.449,75.461,21.289c14.186,52.487-47.069,177.133-116.935,319.299
				c-117.369,238.828-259.129,527.285-107.458,602.564c147.735,73.324,257.231-114.401,369.412-306.726
				c111.396-190.981,225.43-386.481,382.956-337.23c221.663,69.304,308.428,312.684,396.136,558.709
				c41.482,116.359,83.182,233.305,139.455,332.615h-2.729c-56.022-99.215-97.591-215.813-138.948-331.824
				c-87.509-245.472-174.078-488.303-394.617-557.255c-155.733-48.691-269.286,145.988-380.214,336.164
				c-112.743,193.292-222.791,381.959-372.491,307.658c-153.777-76.324-11.453-365.93,106.383-605.707
				c69.657-141.74,130.728-266.01,116.772-317.652c-6.29-23.289-28.338-31.577-72.566-19.625
				c-219.055,59.197-326.294,357.355-426.43,635.779C319.88,1846.146,220.619,2122.12,0,2058.087V2055.622z"/>
		</defs>
		<clipPath id="SVGID_00000003788373515081218400000013874575612744902335_">
			<use xlink:href="#SVGID_00000084530177697712353320000015123557418437616549_"  style="overflow:visible;"/>
		</clipPath>
		
			<linearGradient id="SVGID_00000167368612314859011180000007961312213864777630_" gradientUnits="userSpaceOnUse" x1="977.542" y1="2409.1621" x2="1698.3752" y2="1104.9946">
			<stop  offset="0" style="stop-color:#0000FF"/>
			<stop  offset="1" style="stop-color:#00FFFF"/>
		</linearGradient>
		
			<rect y="897.093" style="clip-path:url(#SVGID_00000003788373515081218400000013874575612744902335_);fill:url(#SVGID_00000167368612314859011180000007961312213864777630_);" width="2949.48" height="1225.028"/>
	</g>
	<g>
		<defs>
			<path id="SVGID_00000152967735766243627900000004847100758110529927_" d="M2318.888,2100
				c-1.809-24.615-3.997-50.161-6.213-76.047c-7.571-88.405-15.479-180.755-9.855-253.603c6.587-85.305,31.719-144.01,97.497-138.93
				c249.301,19.246,411.19,238.504,573.079,457.759l7.99,10.821h-2.922l-6.959-9.423
				c-161.566-218.818-323.135-437.64-571.376-456.805c-63.978-4.94-88.476,52.834-94.956,136.765
				c-5.614,72.697,2.287,164.928,9.847,253.219c2.221,25.952,4.414,51.563,6.227,76.245H2318.888z M0,2037.968
				c1.425,0.563,2.809,1.155,4.255,1.702c233.862,88.464,335.688-194.653,446.155-501.802
				c100.34-278.989,207.794-577.75,428.028-637.266c45.831-12.386,68.774-3.449,75.461,21.289
				c14.188,52.487-47.068,177.133-116.935,319.299c-117.368,238.827-259.128,527.284-107.457,602.564
				c147.733,73.324,257.231-114.401,369.412-306.726c111.396-190.981,225.43-386.482,382.956-337.23
				c221.662,69.304,308.428,312.684,396.135,558.709c42.725,119.844,85.68,240.314,144.551,341.492h-2.747
				c-58.609-101.1-101.43-221.212-144.026-340.701c-87.509-245.472-174.079-488.303-394.618-557.255
				c-155.732-48.691-269.285,145.988-380.212,336.164c-112.745,193.292-222.791,381.959-372.491,307.658
				c-153.778-76.324-11.453-365.93,106.382-605.707c69.657-141.74,130.728-266.01,116.772-317.652
				c-6.289-23.289-28.337-31.577-72.565-19.625C660,962.079,552.762,1260.238,452.627,1538.661
				c-110.89,308.322-213.105,592.52-449.198,503.213c-1.166-0.441-2.276-0.92-3.429-1.37V2037.968z"/>
		</defs>
		<clipPath id="SVGID_00000135653393382008405420000001788327702567686560_">
			<use xlink:href="#SVGID_00000152967735766243627900000004847100758110529927_"  style="overflow:visible;"/>
		</clipPath>
		
			<linearGradient id="SVGID_00000165954688038352808820000009677632048051528613_" gradientUnits="userSpaceOnUse" x1="989.8004" y1="2415.9375" x2="1710.6333" y2="1111.7708">
			<stop  offset="0" style="stop-color:#0000FF"/>
			<stop  offset="1" style="stop-color:#00FFFF"/>
		</linearGradient>
		
			<rect y="888.216" style="clip-path:url(#SVGID_00000135653393382008405420000001788327702567686560_);fill:url(#SVGID_00000165954688038352808820000009677632048051528613_);" width="2981.385" height="1242.966"/>
	</g>
</g>
</svg>
